<svg id="Layer_1" data-name="Layer 1" xmlns="http://www.w3.org/2000/svg" viewBox="0 0 663.88 203.45"><defs><style>.cls-1{fill:#ed1c24;}.cls-2{fill:#231f20;}.cls-3{fill:#000100;}</style></defs><title>PayFast Logo 2-Colour</title><path class="cls-1" d="M234.53,101.11q-6.45-7.42-18.24-7.43H180.37l-2.68,13.6H213.6a10.67,10.67,0,0,1,8.85,3.93,11.44,11.44,0,0,1,2.07,9.66L224,123.2l-.18,1.61H190.53a33.29,33.29,0,0,0-21.38,7.69A32.39,32.39,0,0,0,157.26,152l-.35,1.43q-2.52,11.79,3.84,19.5t18.16,7.68h47l12.71-60.45Q241,108.54,234.53,101.11ZM215,167H181.77a11.23,11.23,0,0,1-9-3.93c-2.21-2.62-2.89-5.85-2.06-9.66L171,152a15.83,15.83,0,0,1,6-9.66,16.71,16.71,0,0,1,10.64-3.94h33.09Zm100.3-73.34-15.21,73.16H265.8a11.18,11.18,0,0,1-9-3.94c-2.21-2.61-2.89-5.84-2.06-9.65l12.35-59.57H253.27l-12.34,59.57q-2.51,11.81,3.94,19.49t18.24,7.7h34.52l-1.07,5a17,17,0,0,1-6.17,9.57,16.3,16.3,0,0,1-10.47,4h-47L230,212.63h47a32.7,32.7,0,0,0,21.11-7.87,33.73,33.73,0,0,0,12.16-19.32l19-91.76Z" transform="translate(-67.98 -36.56)"/><path class="cls-1" d="M172,101.6a32.23,32.23,0,0,1-11.91,19.05q-9.6,7.75-20.89,7.76H92.32l-10.76,52.2H68L92.49,62.8H153q11.28,0,17.55,7.76t4,19Zm-13.58,0,2.47-12Q162.15,84,159,80.08a10.8,10.8,0,0,0-8.82-3.88H103.25L95.14,115h46.91a16.08,16.08,0,0,0,10.4-3.88A16.56,16.56,0,0,0,158.45,101.6Z" transform="translate(-67.98 -36.56)"/><path class="cls-1" d="M720.45,109.37a64.93,64.93,0,0,1-12.36,5.85,58.6,58.6,0,0,1-14.62,3.72q-3.19.54-6.52.89h-.07c-20.51,1.84-38-2.51-48.09-11.9a3,3,0,0,1-.26-.24c0,.36,0,.73,0,1.13a17.4,17.4,0,0,0,4.45,11.37c8.16,9.3,23.82,14.33,42,14.55,12.11,0,23.15-2.29,31.6-6.39a33.49,33.49,0,0,0,10.55-7.75,17.43,17.43,0,0,0,4.56-11.35,16.41,16.41,0,0,0-1.88-7.57A41.35,41.35,0,0,1,720.45,109.37ZM684.64,96.61c-19.17,1.54-35.7-2-46-10.12A17.83,17.83,0,0,0,643,96.81c8.16,9.31,23.83,14.32,42,14.55,12.12,0,23.16-2.29,31.59-6.4a32.79,32.79,0,0,0,10.56-7.75,17.52,17.52,0,0,0,4.54-11.35,16.62,16.62,0,0,0-2.81-9.19C726.26,80.2,715,94.18,684.64,96.61Zm.52-8.64c12.13,0,23.16-2.28,31.58-6.4a33,33,0,0,0,10.58-7.75,17.43,17.43,0,0,0,4.54-11.33,17.43,17.43,0,0,0-4.44-11.38c-8.18-9.32-23.82-14.33-42-14.55-12.12,0-23.16,2.28-31.58,6.38a33.48,33.48,0,0,0-10.58,7.75A17.56,17.56,0,0,0,638.7,62a17.57,17.57,0,0,0,4.45,11.4C651.3,82.73,667,87.74,685.16,88ZM649.63,52.82c4.4-5.41,18.11-10.71,34.16-10.5,10.74,0,20.38,2.28,26.9,5.58a22.13,22.13,0,0,1,7.18,5.24,7,7,0,0,1,2,4.57,7,7,0,0,1-2,4.56c-4.37,5.41-18.1,10.72-34.17,10.51-10.73,0-20.37-2.3-26.88-5.59A22.87,22.87,0,0,1,649.59,62a7.13,7.13,0,0,1-2-4.59A7,7,0,0,1,649.63,52.82Z" transform="translate(-67.98 -36.56)"/><path class="cls-2" d="M459.75,180.55l-47.11.18q-11.82,0-18.2-7.64t-3.93-19.52l.35-1.44a32.48,32.48,0,0,1,11.84-19.59,33.32,33.32,0,0,1,21.38-7.79l33.31-.13.17-1.61.53-2.33A11.47,11.47,0,0,0,456,111a10.7,10.7,0,0,0-8.88-3.91l-38.76.15L411,93.6l38.77-.15q11.82,0,18.29,7.38c4.33,4.94,5.71,11.3,4.2,19.07Zm-11-13.58,5.62-28.71-33.13.12a16.75,16.75,0,0,0-10.64,4,16,16,0,0,0-6,9.71l-.35,1.43q-1.23,5.75,2.1,9.68a11.19,11.19,0,0,0,9.06,3.9Z" transform="translate(-67.98 -36.56)"/><path class="cls-2" d="M550,156.85a27.2,27.2,0,0,1-11.92,17.78,35.71,35.71,0,0,1-20.41,6l-46.56.18,2.81-13.62,46.57-.18q13.78,0,15.72-10.09l.71-3.22q2.1-10-11.68-10l-21,.08q-11.64,0-17.93-5.85-7.19-6.42-4.91-17.71l.71-3.23a27.16,27.16,0,0,1,11.93-17.77,35.73,35.73,0,0,1,20.4-6L561.23,93l-2.64,13.63-46.75.18q-13.79,0-15.9,10.08l-.7,3.23q-1.94,10,11.86,10l20.95-.08q11.64,0,17.94,5.84,7,6.42,4.72,17.72Z" transform="translate(-67.98 -36.56)"/><path class="cls-2" d="M613,180.61l-21.85.08q-11.82,0-18.29-7.7t-4-19.65l9.49-47.13-8.6,0,3-14.08,8.6,0,6.33-31.42,14-.05-6.34,31.41,29-.11-3,14.09-29,.11-9.49,47.13c-.82,3.85-.16,7.1,2,9.74a10.86,10.86,0,0,0,9,3.93l21.85-.08Z" transform="translate(-67.98 -36.56)"/><path class="cls-2" d="M435.44,74.91l-57.06.22a18,18,0,0,0-16.84,13.7l-5.23,26.06,35.61-.14-2.83,13.82-35.43.14-10.81,52.21L329,181l18.69-92.09A34.79,34.79,0,0,1,381.2,61.49l57.06-.22Z" transform="translate(-67.98 -36.56)"/><path class="cls-3" d="M337.45,223.65H324.66l-2.9,7.91h-2.49l10.65-28.16h2.27l10.65,28.16h-2.47Zm-12.05-2h11.29l-5.64-15.34Z" transform="translate(-67.98 -36.56)"/><path class="cls-3" d="M356.09,231.56V203.4h8.32a13.06,13.06,0,0,1,6.63,1.66,11.4,11.4,0,0,1,4.48,4.72,15.07,15.07,0,0,1,1.58,7v1.41a15,15,0,0,1-1.59,7,11.25,11.25,0,0,1-4.55,4.69,13.72,13.72,0,0,1-6.76,1.64Zm4.9-24.22v20.31h3.19a7.33,7.33,0,0,0,5.91-2.41c1.37-1.6,2.07-3.91,2.1-6.91v-1.57c0-3-.67-5.39-2-7a7.08,7.08,0,0,0-5.79-2.42Z" transform="translate(-67.98 -36.56)"/><path class="cls-3" d="M386.87,221.11v10.45H382V203.4h10.77a10.94,10.94,0,0,1,7.5,2.45,8.27,8.27,0,0,1,2.77,6.51,8,8,0,0,1-2.72,6.45c-1.81,1.54-4.35,2.3-7.61,2.3Zm0-3.94h5.88a5.77,5.77,0,0,0,4-1.23,4.5,4.5,0,0,0,1.38-3.55,4.91,4.91,0,0,0-1.39-3.65,5.44,5.44,0,0,0-3.83-1.4h-6Z" transform="translate(-67.98 -36.56)"/><path class="cls-3" d="M429.77,218.21a17.24,17.24,0,0,1-1.43,7.27,10.78,10.78,0,0,1-4.09,4.79,12,12,0,0,1-12.22,0,10.91,10.91,0,0,1-4.14-4.76,16.65,16.65,0,0,1-1.48-7.14v-1.59a17,17,0,0,1,1.46-7.27,11,11,0,0,1,4.12-4.83,12,12,0,0,1,12.2,0,10.74,10.74,0,0,1,4.11,4.76,17,17,0,0,1,1.47,7.23Zm-4.89-1.47q0-4.68-1.77-7.17a6.24,6.24,0,0,0-10,0,12.11,12.11,0,0,0-1.83,7v1.62q0,4.65,1.81,7.18a5.81,5.81,0,0,0,5,2.53,5.75,5.75,0,0,0,5-2.47c1.17-1.65,1.75-4.07,1.75-7.24Z" transform="translate(-67.98 -36.56)"/><path class="cls-3" d="M465.09,222.78a10.11,10.11,0,0,1-3.18,6.81,10.53,10.53,0,0,1-7.18,2.36,10,10,0,0,1-5.55-1.57,10.21,10.21,0,0,1-3.72-4.44,15.69,15.69,0,0,1-1.33-6.57v-3.65a16,16,0,0,1,1.31-6.66,10.16,10.16,0,0,1,3.78-4.47A10.26,10.26,0,0,1,454.9,203a9.39,9.39,0,0,1,10.19,9.19H462.7q-.9-7.19-7.8-7.18a7.38,7.38,0,0,0-6.1,2.87c-1.52,1.91-2.28,4.54-2.28,7.91v3.45a12.48,12.48,0,0,0,2.22,7.78,7.12,7.12,0,0,0,6,2.9,7.94,7.94,0,0,0,5.63-1.78,8.65,8.65,0,0,0,2.34-5.37Z" transform="translate(-67.98 -36.56)"/><path class="cls-3" d="M469.06,220.79a12.31,12.31,0,0,1,1.17-5.44,8.82,8.82,0,0,1,8.15-5.11,8.6,8.6,0,0,1,6.77,2.93,11.31,11.31,0,0,1,2.6,7.77v.48a12.3,12.3,0,0,1-1.18,5.47,8.71,8.71,0,0,1-3.29,3.74,9,9,0,0,1-4.86,1.32,8.64,8.64,0,0,1-6.76-2.93,11.31,11.31,0,0,1-2.6-7.77Zm2.32.63a9.55,9.55,0,0,0,1.94,6.17,6.6,6.6,0,0,0,10.18,0,9.81,9.81,0,0,0,1.94-6.36v-.44a10.58,10.58,0,0,0-.89-4.4,7.16,7.16,0,0,0-2.49-3.08,6.38,6.38,0,0,0-3.68-1.09,6.22,6.22,0,0,0-5.05,2.42,9.85,9.85,0,0,0-1.95,6.36Z" transform="translate(-67.98 -36.56)"/><path class="cls-3" d="M494.63,210.63l.08,3.4a7.73,7.73,0,0,1,2.9-2.84,8,8,0,0,1,3.87-.95q4.95,0,6.29,4.07a7.73,7.73,0,0,1,3-3,8.23,8.23,0,0,1,4.14-1.06q6.74,0,6.87,7.35v14h-2.32V217.77a6.24,6.24,0,0,0-1.21-4.16,4.93,4.93,0,0,0-3.88-1.35,6.11,6.11,0,0,0-4.21,1.61,5.7,5.7,0,0,0-1.92,3.84v13.85h-2.32v-14a5.72,5.72,0,0,0-1.27-4,5,5,0,0,0-3.84-1.32,5.82,5.82,0,0,0-3.75,1.24,7.26,7.26,0,0,0-2.32,3.71v14.35h-2.32V210.63Z" transform="translate(-67.98 -36.56)"/><path class="cls-3" d="M544.46,221.31a12.54,12.54,0,0,1-2.17,7.76,6.89,6.89,0,0,1-5.8,2.88,7.77,7.77,0,0,1-6.58-3v10.68h-2.3v-29h2.15l.12,3a7.41,7.41,0,0,1,6.55-3.35,7,7,0,0,1,5.89,2.85q2.14,2.83,2.14,7.89Zm-2.32-.41a10.7,10.7,0,0,0-1.65-6.32,5.28,5.28,0,0,0-4.58-2.32,6.44,6.44,0,0,0-3.66,1,6.56,6.56,0,0,0-2.34,3v10a6.24,6.24,0,0,0,2.38,2.75A6.87,6.87,0,0,0,536,230a5.23,5.23,0,0,0,4.55-2.33C541.59,226.11,542.14,223.85,542.14,220.9Z" transform="translate(-67.98 -36.56)"/><path class="cls-3" d="M562.8,231.56a11.24,11.24,0,0,1-.45-2.92,8.06,8.06,0,0,1-3.1,2.45,9.59,9.59,0,0,1-4,.86,7,7,0,0,1-4.88-1.69A5.49,5.49,0,0,1,548.5,226a5.61,5.61,0,0,1,2.55-4.84,12.26,12.26,0,0,1,7.09-1.78h4.19V217a4.6,4.6,0,0,0-1.38-3.53,5.75,5.75,0,0,0-4-1.28,6.37,6.37,0,0,0-4,1.23,3.7,3.7,0,0,0-1.58,3l-2.32,0a5.38,5.38,0,0,1,2.32-4.32,8.91,8.91,0,0,1,5.7-1.83,8.2,8.2,0,0,1,5.53,1.75,6.33,6.33,0,0,1,2.08,4.89v9.9a12.45,12.45,0,0,0,.63,4.55v.23Zm-7.28-1.66a7.73,7.73,0,0,0,4.15-1.13,6.52,6.52,0,0,0,2.66-3v-4.61h-4.14a10.39,10.39,0,0,0-5.41,1.27,3.81,3.81,0,0,0-2,3.37,3.77,3.77,0,0,0,1.31,2.93A4.93,4.93,0,0,0,555.52,229.9Z" transform="translate(-67.98 -36.56)"/><path class="cls-3" d="M573,210.63l.08,3.58a8.39,8.39,0,0,1,2.94-3,7.61,7.61,0,0,1,3.89-1,6.3,6.3,0,0,1,5,1.9c1.09,1.26,1.65,3.16,1.66,5.69v13.73h-2.3V217.81a6.43,6.43,0,0,0-1.19-4.18,4.64,4.64,0,0,0-3.74-1.37,5.81,5.81,0,0,0-3.8,1.34,7.82,7.82,0,0,0-2.45,3.63v14.33h-2.3V210.63Z" transform="translate(-67.98 -36.56)"/><path class="cls-3" d="M599.2,228.23l6.11-17.6h2.5l-8.94,24.49-.46,1.08q-1.73,3.81-5.32,3.81a6.47,6.47,0,0,1-1.78-.27l0-1.91,1.2.11a4.32,4.32,0,0,0,2.76-.84,6.38,6.38,0,0,0,1.79-2.89l1-2.82-7.89-20.76h2.53Z" transform="translate(-67.98 -36.56)"/></svg>