<svg id="Layer_1" data-name="Layer 1" xmlns="http://www.w3.org/2000/svg" viewBox="0 0 148 76"><defs><style>.cls-1{fill:#daba27;}.cls-2{fill:#5b5020;}</style></defs><title>ndogologoArtboard 1</title><path class="cls-1" d="M21.39,10.94a1.18,1.18,0,0,0-.51.22,1,1,0,0,0-.31.39,1.19,1.19,0,0,0-.08.51,1.4,1.4,0,0,0,.16.57,1.87,1.87,0,0,0,.39.53,2.07,2.07,0,0,0,.54.39,2.21,2.21,0,0,0,.61.21,1.78,1.78,0,0,0,.61,0,1.15,1.15,0,0,0,.5-.23,1,1,0,0,0,.37-.9,1.36,1.36,0,0,0-.16-.56,2.17,2.17,0,0,0-.38-.52,2.45,2.45,0,0,0-.53-.38A1.87,1.87,0,0,0,22,11a1.57,1.57,0,0,0-.61,0"/><path class="cls-1" d="M18.15,7.21a1,1,0,0,0-.4.15.75.75,0,0,0-.24.29.68.68,0,0,0-.07.38.9.9,0,0,0,.12.43,1.46,1.46,0,0,0,.29.41,2,2,0,0,0,.42.3,1.66,1.66,0,0,0,.47.17,1.56,1.56,0,0,0,.48,0,.82.82,0,0,0,.64-.45.78.78,0,0,0,.06-.38,1,1,0,0,0-.12-.42,1.41,1.41,0,0,0-.29-.4,1.73,1.73,0,0,0-.41-.3,1.66,1.66,0,0,0-.47-.17,1.29,1.29,0,0,0-.48,0"/><path class="cls-1" d="M25.15,15.2a1.74,1.74,0,0,0-.71.34,1.42,1.42,0,0,0-.43.6,1.58,1.58,0,0,0-.12.76,2.12,2.12,0,0,0,.25.84,1.64,1.64,0,0,0,.16.29,2.56,2.56,0,0,0,.2.26l.22.24.25.21q.36-.3.75-.57c.25-.18.51-.36.78-.52s.53-.33.8-.48.55-.29.84-.42a2.69,2.69,0,0,0-.55-.74,3,3,0,0,0-.74-.54,3,3,0,0,0-.85-.29,2.42,2.42,0,0,0-.85,0"/><path class="cls-1" d="M15.66,15.46l-.11,0-.1,0-.1,0-.1,0a1.19,1.19,0,0,0-.43.4,1,1,0,0,0-.18.54,1.36,1.36,0,0,0,.08.59,1.91,1.91,0,0,0,.35.59,2.44,2.44,0,0,0,.46.39,2.11,2.11,0,0,0,.52.26,2.31,2.31,0,0,0,.56.11,1.6,1.6,0,0,0,.54,0l.11,0,.1,0,.1,0,.1-.05a1.15,1.15,0,0,0,.41-.41,1.23,1.23,0,0,0,.17-.53,1.47,1.47,0,0,0-.09-.58,1.87,1.87,0,0,0-.35-.58,2,2,0,0,0-.44-.38,2,2,0,0,0-.51-.26,2.2,2.2,0,0,0-.55-.13,2,2,0,0,0-.54,0"/><path class="cls-1" d="M20.89,18.9l-.15.05-.15.05-.14.07-.13.08a1.56,1.56,0,0,0-.58.59,1.65,1.65,0,0,0-.23.78,2.05,2.05,0,0,0,.13.87,2.74,2.74,0,0,0,.51.84,2,2,0,0,0,.25.26,2.88,2.88,0,0,0,.27.22l.3.19.3.15c.18-.29.36-.58.55-.86s.38-.55.59-.81.41-.52.62-.77l.67-.72A3,3,0,0,0,22.38,19a2.88,2.88,0,0,0-.75-.16,3,3,0,0,0-.74.06"/><path class="cls-1" d="M11.56,22.23l-.23.07a1.51,1.51,0,0,0-.22.11l-.2.14a1.37,1.37,0,0,0-.17.17,1.33,1.33,0,0,0-.29.58,1.54,1.54,0,0,0,0,.64,2,2,0,0,0,.28.62,2.29,2.29,0,0,0,.55.52,2,2,0,0,0,.45.24,2,2,0,0,0,.46.13,1.89,1.89,0,0,0,.47,0,1.62,1.62,0,0,0,.44-.07l.23-.08a1.51,1.51,0,0,0,.22-.11c.06,0,.13-.09.19-.15a1.29,1.29,0,0,0,.16-.17,1.3,1.3,0,0,0,.27-.57,1.34,1.34,0,0,0,0-.63,2,2,0,0,0-.28-.61,2.34,2.34,0,0,0-.53-.51,2.11,2.11,0,0,0-.44-.24,2.59,2.59,0,0,0-.45-.14,2.49,2.49,0,0,0-.47,0,2.13,2.13,0,0,0-.44.07"/><path class="cls-1" d="M5.84,20.27l-.19.06-.18.08a.91.91,0,0,0-.16.11l-.15.13a1,1,0,0,0-.24.93,1.4,1.4,0,0,0,.21.49,1.87,1.87,0,0,0,.43.41,2.09,2.09,0,0,0,.36.19,2.38,2.38,0,0,0,.38.11,2.34,2.34,0,0,0,.38,0,2.23,2.23,0,0,0,.36,0l.19-.06.17-.09a.91.91,0,0,0,.16-.11.86.86,0,0,0,.14-.13,1.1,1.1,0,0,0,.23-.44,1.16,1.16,0,0,0-.22-1,1.82,1.82,0,0,0-.42-.41,2.31,2.31,0,0,0-.35-.18,1.58,1.58,0,0,0-.37-.11,1.55,1.55,0,0,0-.37,0,2.09,2.09,0,0,0-.36,0"/><path class="cls-1" d="M18,24.23a1.66,1.66,0,0,0-.31.12,1.35,1.35,0,0,0-.29.16,1.71,1.71,0,0,0-.27.2,1.84,1.84,0,0,0-.23.25,2,2,0,0,0-.37.82,2.38,2.38,0,0,0,0,.92,2.64,2.64,0,0,0,.42.88,2.86,2.86,0,0,0,.76.75,3.37,3.37,0,0,0,.32.19l.34.14a1.93,1.93,0,0,0,.34.11,2,2,0,0,0,.34.06c.08-.37.17-.73.26-1.09s.2-.7.31-1,.23-.69.36-1,.27-.66.42-1a3.09,3.09,0,0,0-.59-.32,2.94,2.94,0,0,0-.62-.19,3.28,3.28,0,0,0-.62,0,2.89,2.89,0,0,0-.6.09"/><path class="cls-1" d="M9.85,30.83a2.43,2.43,0,0,0-.37.16,1.78,1.78,0,0,0-.31.23,1.2,1.2,0,0,0-.26.29,1.45,1.45,0,0,0-.18.35,1.57,1.57,0,0,0-.09.71,1.67,1.67,0,0,0,.23.67,1.77,1.77,0,0,0,.49.57,1.94,1.94,0,0,0,.71.38l.36.09.36,0a2.07,2.07,0,0,0,.35,0l.33-.08a2.37,2.37,0,0,0,.36-.17,2.34,2.34,0,0,0,.31-.24,1.37,1.37,0,0,0,.24-.29,1.62,1.62,0,0,0,.17-.35,1.64,1.64,0,0,0,.08-.69,1.73,1.73,0,0,0-.23-.66,1.78,1.78,0,0,0-.47-.56,2.31,2.31,0,0,0-.69-.38,2.25,2.25,0,0,0-.35-.09,2.19,2.19,0,0,0-.36,0,1.37,1.37,0,0,0-.35,0,1.94,1.94,0,0,0-.33.07"/><path class="cls-1" d="M16.91,30.82a2.09,2.09,0,0,0-.48.22,2.53,2.53,0,0,0-.42.31,2.58,2.58,0,0,0-.33.41,2.07,2.07,0,0,0-.23.5,2.22,2.22,0,0,0-.09,1,2.55,2.55,0,0,0,.32,1,2.85,2.85,0,0,0,.68.79,3,3,0,0,0,1,.53,1.7,1.7,0,0,0,.37.1l.37.05h.36l.34-.05c0-.41-.08-.81-.1-1.22s0-.81,0-1.21,0-.79,0-1.18.05-.78.09-1.16a3,3,0,0,0-.47-.12,2.59,2.59,0,0,0-.47-.05,3.44,3.44,0,0,0-.46,0,2.18,2.18,0,0,0-.44.11"/><path class="cls-1" d="M11.09,40.39a1.83,1.83,0,0,0-.49.28,1.8,1.8,0,0,0-.39.39,1.72,1.72,0,0,0-.26.48,2.05,2.05,0,0,0-.1.56,1.74,1.74,0,0,0,.16.75,1.82,1.82,0,0,0,.43.62,2.09,2.09,0,0,0,.66.43,2.38,2.38,0,0,0,.81.16h.22l.22,0,.21-.06.2-.07a2,2,0,0,0,.48-.29,1.73,1.73,0,0,0,.62-.88,1.92,1.92,0,0,0,.09-.55,1.84,1.84,0,0,0-.16-.73,2.08,2.08,0,0,0-1.06-1,2.28,2.28,0,0,0-.79-.17h-.22l-.22,0-.21,0-.2.06"/><path class="cls-1" d="M4.73,42.34a1.78,1.78,0,0,0-.41.22,1.67,1.67,0,0,0-.33.32,1.87,1.87,0,0,0-.22.39,1.64,1.64,0,0,0-.09.44,1.34,1.34,0,0,0,.11.6,1.42,1.42,0,0,0,.35.49,1.53,1.53,0,0,0,.53.33,1.8,1.8,0,0,0,.66.13h.19l.18,0,.17,0L6,45.12a1.81,1.81,0,0,0,.41-.23,1.62,1.62,0,0,0,.32-.32A1.47,1.47,0,0,0,7,44.18a1.32,1.32,0,0,0,.08-.44,1.25,1.25,0,0,0-.11-.58,1.66,1.66,0,0,0-.34-.49,1.62,1.62,0,0,0-.52-.32,1.75,1.75,0,0,0-.65-.13H5.25l-.18,0-.17,0-.17.06"/><path class="cls-1" d="M18,38a2.41,2.41,0,0,0-.65.36,2.52,2.52,0,0,0-.5.53,2.33,2.33,0,0,0-.33.67,2.12,2.12,0,0,0-.11.76,2.51,2.51,0,0,0,.23,1,2.6,2.6,0,0,0,.61.86,3,3,0,0,0,.89.6,2.78,2.78,0,0,0,1.08.22h.3l.28,0,.28-.07.26-.1.07,0,.07,0,.07,0,.06,0c-.17-.4-.33-.81-.48-1.22s-.28-.81-.41-1.22-.24-.82-.34-1.22-.2-.81-.28-1.22h-.29a1.27,1.27,0,0,0-.28,0l-.27.06A2,2,0,0,0,18,38"/><path class="cls-1" d="M15.36,49.66a1.81,1.81,0,0,0-.59.42,2.11,2.11,0,0,0-.41.58,2.07,2.07,0,0,0-.18.69,1.78,1.78,0,0,0,.08.72,1.9,1.9,0,0,0,.38.7,2,2,0,0,0,.61.47,2.09,2.09,0,0,0,.74.2,2,2,0,0,0,.8-.11l.08,0,.06,0,.07,0,.07,0a2.12,2.12,0,0,0,.58-.44A2.27,2.27,0,0,0,18,52.2a2,2,0,0,0,.16-.68,1.69,1.69,0,0,0-.09-.7,1.8,1.8,0,0,0-.37-.68,2,2,0,0,0-.59-.47,2,2,0,0,0-.72-.2,2,2,0,0,0-.8.08l-.07,0-.07,0-.06,0-.07,0"/><path class="cls-1" d="M21.26,44.92a2.4,2.4,0,0,0-.78.55,2.71,2.71,0,0,0-.53.77,2.94,2.94,0,0,0-.22.94,2.83,2.83,0,0,0,.12,1,2.79,2.79,0,0,0,1.37,1.63,2.68,2.68,0,0,0,1,.29A2.75,2.75,0,0,0,23.29,50l.09,0,.09,0,.09,0,.09,0,.23-.14.22-.15.19-.18a1.07,1.07,0,0,0,.18-.19c-.27-.33-.53-.67-.78-1s-.5-.7-.74-1.07-.47-.74-.69-1.11-.44-.77-.65-1.16l-.09,0-.09,0-.09,0-.08,0"/><path class="cls-1" d="M22.16,57.31l-.06,0-.06,0-.06,0-.06,0a2.17,2.17,0,0,0-.82,1.34,2.33,2.33,0,0,0,0,.79,1.9,1.9,0,0,0,.3.74,2,2,0,0,0,.5.5,1.61,1.61,0,0,0,.62.26,1.73,1.73,0,0,0,.68,0,2.05,2.05,0,0,0,.65-.24l.06,0,.06,0,.06,0,.05,0a2,2,0,0,0,.52-.61,2.18,2.18,0,0,0,.26-.74,2.21,2.21,0,0,0,0-.77,2,2,0,0,0-.3-.72,2.07,2.07,0,0,0-.49-.49,1.79,1.79,0,0,0-.6-.26,1.76,1.76,0,0,0-1.31.2"/><path class="cls-1" d="M18.3,63l-.05,0-.05,0-.05,0,0,0a1.74,1.74,0,0,0-.44.5,1.65,1.65,0,0,0-.24.6,1.72,1.72,0,0,0,0,.64,1.47,1.47,0,0,0,.63,1,1.28,1.28,0,0,0,.5.2,1.46,1.46,0,0,0,.55,0,1.4,1.4,0,0,0,.53-.21l.05,0,.05,0,.05,0,0,0a1.78,1.78,0,0,0,.44-.51,2.17,2.17,0,0,0,.22-.6,1.84,1.84,0,0,0,0-.62,1.35,1.35,0,0,0-.23-.57,1.32,1.32,0,0,0-.39-.39,1.2,1.2,0,0,0-.48-.2,1.4,1.4,0,0,0-.54,0,1.8,1.8,0,0,0-.53.2"/><path class="cls-1" d="M26,50.9a2.77,2.77,0,0,0-.7.79,2.87,2.87,0,0,0-.36,1,2.91,2.91,0,0,0,0,1.06,2.83,2.83,0,0,0,.42,1,2.78,2.78,0,0,0,.7.71,2.45,2.45,0,0,0,.84.38,2.37,2.37,0,0,0,.92,0,2.42,2.42,0,0,0,.88-.3l.07-.05.08,0,.08-.05.08-.06a2.16,2.16,0,0,0,.27-.25,3.11,3.11,0,0,0,.23-.28c.07-.1.13-.2.19-.3a3.27,3.27,0,0,0,.14-.33c-.34-.23-.67-.48-1-.74s-.66-.52-1-.8-.64-.56-.95-.86-.62-.6-.92-.92"/><path class="cls-1" d="M30.46,62.34l-.16.12-.15.13-.14.16-.12.17a2.19,2.19,0,0,0-.36,1.51,2,2,0,0,0,.22.73,2,2,0,0,0,.47.59,1.93,1.93,0,0,0,.46.26,1.47,1.47,0,0,0,.5.09,1.73,1.73,0,0,0,.5-.07,1.62,1.62,0,0,0,.46-.22l.16-.12a.93.93,0,0,0,.14-.14,1.07,1.07,0,0,0,.14-.16l.12-.17a2.3,2.3,0,0,0,.3-.73,2.5,2.5,0,0,0,0-.77,2.45,2.45,0,0,0-.22-.71,2,2,0,0,0-.46-.57,1.7,1.7,0,0,0-.45-.26,1.37,1.37,0,0,0-.48-.1,1.6,1.6,0,0,0-.49.05,2.18,2.18,0,0,0-.47.21"/><path class="cls-1" d="M31.72,55.41a3,3,0,0,0-.42,1,3.15,3.15,0,0,0-.05,1.06,3.05,3.05,0,0,0,.32,1,2.71,2.71,0,0,0,.65.82,2.4,2.4,0,0,0,.65.38,2.31,2.31,0,0,0,.69.16,2.58,2.58,0,0,0,.68-.07,2.3,2.3,0,0,0,.64-.29l.21-.15a1.12,1.12,0,0,0,.2-.18l.18-.2.17-.24a3.24,3.24,0,0,0,.17-.32c0-.11.09-.22.13-.33a2.58,2.58,0,0,0,.09-.35c0-.12,0-.24,0-.36-.37-.11-.73-.24-1.1-.38s-.73-.29-1.09-.45-.73-.33-1.09-.51-.72-.37-1.07-.57"/><path class="cls-1" d="M39.09,64.34a1.43,1.43,0,0,0-.23.2,1.59,1.59,0,0,0-.2.24,2,2,0,0,0-.16.29,1.61,1.61,0,0,0-.12.33,2.19,2.19,0,0,0,.08,1.49,1.81,1.81,0,0,0,.38.59,1.43,1.43,0,0,0,.56.38,1.05,1.05,0,0,0,.35.08,1,1,0,0,0,.34,0,1.35,1.35,0,0,0,.33-.09,1.17,1.17,0,0,0,.3-.19,1.07,1.07,0,0,0,.23-.2,1.64,1.64,0,0,0,.19-.25,2,2,0,0,0,.16-.29,3,3,0,0,0,.11-.32,2.2,2.2,0,0,0,.07-.76,2.1,2.1,0,0,0-.16-.71,2,2,0,0,0-.37-.57,1.75,1.75,0,0,0-.55-.38,1.89,1.89,0,0,0-.34-.09,1.29,1.29,0,0,0-.34,0,1,1,0,0,0-.33.09,1.46,1.46,0,0,0-.3.16"/><path class="cls-1" d="M39,71a1.29,1.29,0,0,0-.17.16,1.66,1.66,0,0,0-.16.21,1.43,1.43,0,0,0-.22.5,1.88,1.88,0,0,0-.07.62,2.07,2.07,0,0,0,.13.57,1.47,1.47,0,0,0,.3.46,1.13,1.13,0,0,0,.43.29.87.87,0,0,0,.28.05.82.82,0,0,0,.27,0,1.21,1.21,0,0,0,.25-.08.78.78,0,0,0,.24-.16,1.41,1.41,0,0,0,.18-.17l.15-.2a1.34,1.34,0,0,0,.12-.24,1.14,1.14,0,0,0,.09-.26,1.84,1.84,0,0,0,.06-.61,2,2,0,0,0-.13-.56,1.56,1.56,0,0,0-.29-.46,1.15,1.15,0,0,0-.43-.28,1.18,1.18,0,0,0-.27-.06,1.15,1.15,0,0,0-.26,0,1.14,1.14,0,0,0-.26.09A1,1,0,0,0,39,71"/><path class="cls-1" d="M38,57.84a3.2,3.2,0,0,0-.12,1.06,3.33,3.33,0,0,0,.24,1,2.92,2.92,0,0,0,.53.84,2.55,2.55,0,0,0,.79.55,1.85,1.85,0,0,0,.5.13,1.61,1.61,0,0,0,.49,0,1.83,1.83,0,0,0,.46-.12,2,2,0,0,0,.43-.23,1.86,1.86,0,0,0,.31-.26,2.16,2.16,0,0,0,.27-.33,3.61,3.61,0,0,0,.22-.39,4.5,4.5,0,0,0,.16-.44c0-.12,0-.23.07-.35l0-.36c0-.11,0-.23,0-.35a2.15,2.15,0,0,0,0-.34c-.35,0-.7,0-1.06,0s-.71,0-1.07-.07-.73-.08-1.09-.13-.73-.13-1.09-.21"/><path class="cls-1" d="M47,63.44a1.72,1.72,0,0,0-.27.27,1.36,1.36,0,0,0-.21.35,1.88,1.88,0,0,0-.14.42,2.34,2.34,0,0,0,0,.47,2.13,2.13,0,0,0,.12.72,2,2,0,0,0,.31.6,1.53,1.53,0,0,0,.47.41,1.1,1.1,0,0,0,.56.16H48l.21,0,.19-.09a.88.88,0,0,0,.17-.12,1.2,1.2,0,0,0,.27-.28,2.3,2.3,0,0,0,.2-.35,1.87,1.87,0,0,0,.13-.42,2.29,2.29,0,0,0-.08-1.16,2,2,0,0,0-.31-.59,1.58,1.58,0,0,0-.45-.41,1.22,1.22,0,0,0-.56-.17h-.21l-.2,0a.71.71,0,0,0-.18.08,1.08,1.08,0,0,0-.18.11"/><path class="cls-1" d="M44.2,58.13a3.39,3.39,0,0,0,.16,1,3.44,3.44,0,0,0,.45.85,2.38,2.38,0,0,0,.67.6,1.84,1.84,0,0,0,.82.26h.31l.29-.06a1.53,1.53,0,0,0,.27-.11,1.28,1.28,0,0,0,.25-.15,2,2,0,0,0,.39-.38,2.55,2.55,0,0,0,.29-.48,2.25,2.25,0,0,0,.19-.57,3.24,3.24,0,0,0,.06-.64c0-.11,0-.23,0-.34l-.06-.34c0-.1-.06-.21-.1-.32s-.08-.2-.12-.3q-.46.18-.93.33c-.31.1-.63.19-.95.27s-.65.16-1,.22-.66.12-1,.16"/><path class="cls-1" d="M53.52,60.16a1.24,1.24,0,0,0-.3.34,1.58,1.58,0,0,0-.19.44,1.83,1.83,0,0,0-.07.53A2.2,2.2,0,0,0,53,62a1.81,1.81,0,0,0,.26.62,1.55,1.55,0,0,0,.4.44,1.37,1.37,0,0,0,.49.23,1,1,0,0,0,.51,0l.09,0,.08,0,.08-.05L55,63.1a1.19,1.19,0,0,0,.29-.34,1.78,1.78,0,0,0,.25-1,2.59,2.59,0,0,0-.07-.55,2.05,2.05,0,0,0-.26-.6,1.68,1.68,0,0,0-.39-.44,1.33,1.33,0,0,0-.48-.23.89.89,0,0,0-.51,0l-.09,0-.08,0-.08,0-.08,0"/><path class="cls-1" d="M56.05,65.22a1.13,1.13,0,0,0-.22.27,1.42,1.42,0,0,0-.14.36,1.4,1.4,0,0,0,0,.41,2.28,2.28,0,0,0,0,.44,1.68,1.68,0,0,0,.21.47,1.07,1.07,0,0,0,.3.33.78.78,0,0,0,.37.17.72.72,0,0,0,.38,0l.07,0s0,0,.06,0l.06,0,.06,0a1.18,1.18,0,0,0,.22-.27,1.4,1.4,0,0,0,.13-.36,1.84,1.84,0,0,0,0-.41,2.18,2.18,0,0,0-.05-.43,1.94,1.94,0,0,0-.2-.46,1.21,1.21,0,0,0-.3-.33,1,1,0,0,0-.36-.17.74.74,0,0,0-.39,0l-.06,0-.07,0-.06,0-.05,0"/><path class="cls-1" d="M49.61,56.44a3.09,3.09,0,0,0,.37.89,2.65,2.65,0,0,0,.59.65,1.9,1.9,0,0,0,.72.34,1.51,1.51,0,0,0,.76,0l.13,0,.12-.06a.35.35,0,0,0,.12-.07l.12-.08a1.62,1.62,0,0,0,.43-.47,2.06,2.06,0,0,0,.28-.62,2.86,2.86,0,0,0,.1-.73,3,3,0,0,0-.1-.77,3,3,0,0,0-.1-.32,1.94,1.94,0,0,0-.13-.3l-.15-.27-.18-.24-.31.26-.31.26-.32.25-.33.24-.44.3-.45.28-.46.27-.46.25"/><path class="cls-1" d="M58.28,55.16a1.26,1.26,0,0,0-.32.4,1.73,1.73,0,0,0-.16.53,2.43,2.43,0,0,0,0,.6,2.14,2.14,0,0,0,.21.6,1.68,1.68,0,0,0,.36.49,1.44,1.44,0,0,0,.43.28,1,1,0,0,0,.46.06.8.8,0,0,0,.42-.19,1.11,1.11,0,0,0,.31-.4,1.54,1.54,0,0,0,.15-.54,2,2,0,0,0,0-.59,1.87,1.87,0,0,0-.2-.59,1.56,1.56,0,0,0-.35-.47,1.27,1.27,0,0,0-.42-.29A1,1,0,0,0,58.7,55a1,1,0,0,0-.42.17"/><path class="cls-1" d="M56,50.26c-.15.26-.31.52-.47.77s-.34.5-.52.74-.37.49-.56.73l-.61.69a2.56,2.56,0,0,0,.52.71,2,2,0,0,0,.65.42,1.51,1.51,0,0,0,.69.1,1.32,1.32,0,0,0,.64-.26,1.54,1.54,0,0,0,.48-.56,2.59,2.59,0,0,0,.23-.76,3,3,0,0,0-.32-1.7l-.15-.26a2.5,2.5,0,0,0-.18-.24l-.19-.2L56,50.26"/><path class="cls-1" d="M61.94,35.77a.61.61,0,0,0-.16.12.74.74,0,0,0-.12.17,1,1,0,0,0-.08.21,2,2,0,0,0,0,.26,1.71,1.71,0,0,0,.06.5,2.55,2.55,0,0,0,.2.48,1.82,1.82,0,0,0,.32.4,1.45,1.45,0,0,0,.4.26,1.39,1.39,0,0,0,.19.06h.18a.45.45,0,0,0,.16,0,.94.94,0,0,0,.15-.06.64.64,0,0,0,.15-.13,1,1,0,0,0,.12-.17,1.43,1.43,0,0,0,.08-.22,1.9,1.9,0,0,0,0-.25,1.67,1.67,0,0,0-.06-.5,2.76,2.76,0,0,0-.2-.47A2,2,0,0,0,63,36a1.56,1.56,0,0,0-.39-.26l-.19-.06-.18,0a.41.41,0,0,0-.16,0,.34.34,0,0,0-.15.06"/><path class="cls-1" d="M65.17,36.33a.31.31,0,0,0-.11.09.57.57,0,0,0-.08.13.38.38,0,0,0-.06.16,1,1,0,0,0,0,.18,1.24,1.24,0,0,0,0,.38,1.19,1.19,0,0,0,.15.35,2.37,2.37,0,0,0,.23.3,1,1,0,0,0,.29.19l.14,0a.29.29,0,0,0,.13,0l.12,0,.1,0a.52.52,0,0,0,.11-.1.41.41,0,0,0,.08-.13.59.59,0,0,0,.06-.16,1.11,1.11,0,0,0,0-.19,1.57,1.57,0,0,0,0-.37,2.17,2.17,0,0,0-.15-.35,2.26,2.26,0,0,0-.23-.29,1.32,1.32,0,0,0-.29-.19l-.14,0h-.24l-.11,0"/><path class="cls-1" d="M57.9,34.74c.08.31.15.61.21.92s.12.62.17.92.09.62.13.93.07.62.09.92l.29.09a1.34,1.34,0,0,0,.28,0,.73.73,0,0,0,.25,0,.67.67,0,0,0,.23-.1.88.88,0,0,0,.24-.19A1.64,1.64,0,0,0,60,38a1.61,1.61,0,0,0,.12-.33,2,2,0,0,0,.06-.38,2.63,2.63,0,0,0-.08-.74,3,3,0,0,0-.3-.71,2.91,2.91,0,0,0-.47-.58,1.79,1.79,0,0,0-.59-.39.9.9,0,0,0-.21-.08l-.21,0h-.21l-.19,0"/><path class="cls-1" d="M60.07,29.25a.62.62,0,0,0-.2.16.74.74,0,0,0-.14.23.94.94,0,0,0-.06.3,1.4,1.4,0,0,0,0,.35,1.78,1.78,0,0,0,.17.49,1.65,1.65,0,0,0,.28.41,1.29,1.29,0,0,0,.37.3,1.09,1.09,0,0,0,.4.15h.21l.09,0,.09,0a.62.62,0,0,0,.2-.16.78.78,0,0,0,.13-.24,1.24,1.24,0,0,0,.06-.29,1.42,1.42,0,0,0,0-.35,1.94,1.94,0,0,0-.16-.48,2,2,0,0,0-.28-.41,1.69,1.69,0,0,0-.36-.3,1.07,1.07,0,0,0-.4-.14h-.21l-.09,0-.09,0"/><path class="cls-1" d="M56.21,29.51h0l0,0,0,0,0,0c.14.29.27.58.4.87s.25.59.36.88.23.59.33.89.2.59.3.88h.16l.15,0,.15,0,.13-.05a1.13,1.13,0,0,0,.52-.61,1.64,1.64,0,0,0,.1-.45,2.43,2.43,0,0,0,0-.53,3,3,0,0,0-.24-.72,3,3,0,0,0-.42-.61,2.31,2.31,0,0,0-.55-.45,1.67,1.67,0,0,0-.61-.22H56.5l-.15,0-.14.06"/><path class="cls-1" d="M56.93,23.21a.63.63,0,0,0-.26.19,1,1,0,0,0-.14.31,1.53,1.53,0,0,0,0,.38,1.89,1.89,0,0,0,.11.44,2.2,2.2,0,0,0,.26.45,1.92,1.92,0,0,0,.36.34,1.31,1.31,0,0,0,.39.2.74.74,0,0,0,.39,0h0s0,0,0,0h0s0,0,0,0a.54.54,0,0,0,.25-.19.8.8,0,0,0,.14-.31,1.64,1.64,0,0,0,0-.39,1.79,1.79,0,0,0-.12-.42,1.66,1.66,0,0,0-.26-.45,1.76,1.76,0,0,0-.34-.33,1.11,1.11,0,0,0-.39-.2.86.86,0,0,0-.39,0h-.12"/><path class="cls-1" d="M59.36,22a.49.49,0,0,0-.18.14.5.5,0,0,0-.1.22.86.86,0,0,0,0,.28,1,1,0,0,0,.09.32,1.35,1.35,0,0,0,.19.33,1.28,1.28,0,0,0,.26.26,1.22,1.22,0,0,0,.28.14.72.72,0,0,0,.29,0h.09a.39.39,0,0,0,.17-.14.55.55,0,0,0,.1-.22.93.93,0,0,0,0-.29.91.91,0,0,0-.09-.31,1.35,1.35,0,0,0-.19-.33,1.18,1.18,0,0,0-.25-.25,1,1,0,0,0-.28-.15.58.58,0,0,0-.29,0h-.09"/><path class="cls-1" d="M53.65,24.56l-.12.06a.5.5,0,0,0-.12.08l-.1.09-.09.11c.19.25.37.5.55.76s.36.51.53.78.34.54.51.81l.48.83h.1l0,0,0,0a.92.92,0,0,0,.39-.31,1.36,1.36,0,0,0,.22-.47,1.9,1.9,0,0,0,0-.59A2.51,2.51,0,0,0,56,26a3.07,3.07,0,0,0-.38-.66,2.27,2.27,0,0,0-.53-.5,1.94,1.94,0,0,0-.59-.3,1.37,1.37,0,0,0-.6,0H53.8l0,0h0l-.05,0"/><path class="cls-1" d="M52.67,17.88h-.06l0,0h0a.63.63,0,0,0-.25.26.93.93,0,0,0-.1.38,1.5,1.5,0,0,0,.07.45,1.61,1.61,0,0,0,.22.46,2.25,2.25,0,0,0,.31.37,1.88,1.88,0,0,0,.36.24,1.51,1.51,0,0,0,.38.12.78.78,0,0,0,.34,0h.06l0,0h0a.69.69,0,0,0,.24-.27,1.12,1.12,0,0,0,.09-.37,1.39,1.39,0,0,0-.07-.44,1.76,1.76,0,0,0-.22-.46,1.79,1.79,0,0,0-.3-.36,2,2,0,0,0-.36-.25,1,1,0,0,0-.37-.11.77.77,0,0,0-.34,0"/><path class="cls-1" d="M50.15,20.21h0l0,0-.05,0,0,0-.16.11-.13.14-.1.17a1.42,1.42,0,0,0-.08.18l.7.63.68.66c.22.23.44.45.65.69s.43.47.64.71a1.08,1.08,0,0,0,.37-.42,1.37,1.37,0,0,0,.13-.58,2,2,0,0,0-.09-.67,2.71,2.71,0,0,0-.33-.69,2.62,2.62,0,0,0-.46-.53,2.31,2.31,0,0,0-.54-.36,1.65,1.65,0,0,0-.56-.17,1,1,0,0,0-.53.05"/><path class="cls-1" d="M47.44,13.49l-.1,0-.09,0-.08.06a.23.23,0,0,0-.07.07.75.75,0,0,0-.16.35,1.09,1.09,0,0,0,0,.44,1.72,1.72,0,0,0,.17.46,1.85,1.85,0,0,0,.32.43,1.79,1.79,0,0,0,.31.25,1.37,1.37,0,0,0,.32.16,1.13,1.13,0,0,0,.31.06.64.64,0,0,0,.28,0l.1,0,.09,0,.07-.06.08-.07a.77.77,0,0,0,.15-.36,1.06,1.06,0,0,0,0-.43,1.38,1.38,0,0,0-.17-.45,2,2,0,0,0-.31-.43,2.34,2.34,0,0,0-.31-.24,1.3,1.3,0,0,0-.31-.16,1.16,1.16,0,0,0-.31-.07.84.84,0,0,0-.28,0"/><path class="cls-1" d="M48.58,10.86l-.07,0-.06,0-.06,0s0,0,0,.05a.57.57,0,0,0-.12.26.66.66,0,0,0,0,.31.89.89,0,0,0,.13.34,1.41,1.41,0,0,0,.24.32,1.3,1.3,0,0,0,.22.19,1.34,1.34,0,0,0,.24.12.59.59,0,0,0,.23.05.74.74,0,0,0,.21,0l.07,0s0,0,.06,0l.06,0,.05-.05a.56.56,0,0,0,.11-.26.82.82,0,0,0,0-.31,1.31,1.31,0,0,0-.13-.34,1.36,1.36,0,0,0-.24-.31L49.25,11A1,1,0,0,0,49,10.9a1,1,0,0,0-.23-.06.75.75,0,0,0-.21,0"/><path class="cls-1" d="M45.84,16.67a.94.94,0,0,0-.15.06l-.13.07-.13.09-.11.11a1.63,1.63,0,0,0-.11.17.88.88,0,0,0-.09.2,1.17,1.17,0,0,0,0,.2,1.8,1.8,0,0,0,0,.22l.81.47c.26.15.53.32.79.49l.78.52.76.56a1.22,1.22,0,0,0,.23-.55,1.85,1.85,0,0,0,0-.66,2.57,2.57,0,0,0-.26-.68,2.79,2.79,0,0,0-.47-.63,3.55,3.55,0,0,0-.45-.36,2.62,2.62,0,0,0-.48-.23,2,2,0,0,0-.47-.09,1.21,1.21,0,0,0-.43,0"/><path class="cls-1" d="M41.41,10.31l-.17,0a.71.71,0,0,0-.14.1.37.37,0,0,0-.12.13.42.42,0,0,0-.09.16.88.88,0,0,0-.06.43,1.43,1.43,0,0,0,.13.48,2,2,0,0,0,.29.45,2.14,2.14,0,0,0,.42.37,1.65,1.65,0,0,0,.26.14l.26.09.25,0a.86.86,0,0,0,.23,0l.17-.06a.71.71,0,0,0,.14-.1.74.74,0,0,0,.12-.13.8.8,0,0,0,.08-.16.94.94,0,0,0,0-.44,1.33,1.33,0,0,0-.13-.46,1.57,1.57,0,0,0-.28-.44,2.05,2.05,0,0,0-.41-.37,2.26,2.26,0,0,0-.26-.14l-.26-.09-.25,0a.9.9,0,0,0-.23,0"/><path class="cls-1" d="M40.92,14.18a1.17,1.17,0,0,0-.26.1,1.07,1.07,0,0,0-.22.15.7.7,0,0,0-.18.2,1.48,1.48,0,0,0-.14.25l-.06.22a1.79,1.79,0,0,0,0,.23,1,1,0,0,0,0,.24,2,2,0,0,0,0,.24l.89.26c.29.09.58.18.87.29s.58.21.87.33.57.23.85.36a1.6,1.6,0,0,0,.07-.66,2.31,2.31,0,0,0-.2-.7A2.41,2.41,0,0,0,43,15a2.88,2.88,0,0,0-.61-.54,2.4,2.4,0,0,0-.39-.2,1.39,1.39,0,0,0-.38-.12,1.61,1.61,0,0,0-.37,0,1.86,1.86,0,0,0-.34,0"/><path class="cls-1" d="M34.83,8.61a1.14,1.14,0,0,0-.26.09.83.83,0,0,0-.21.16.88.88,0,0,0-.14.23.83.83,0,0,0-.06.29,1.11,1.11,0,0,0,.07.5,1.51,1.51,0,0,0,.26.48,2.21,2.21,0,0,0,.4.41,2.12,2.12,0,0,0,.51.28l.2.06.18,0H36l.16,0a.74.74,0,0,0,.26-.1.64.64,0,0,0,.2-.16.79.79,0,0,0,.14-.23,1.27,1.27,0,0,0,.06-.28,1.25,1.25,0,0,0-.08-.5,1.65,1.65,0,0,0-.25-.47,2,2,0,0,0-.9-.69l-.19-.06-.19,0H35l-.17,0"/><path class="cls-1" d="M34.1,5,33.9,5a.42.42,0,0,0-.15.11.57.57,0,0,0-.11.16.46.46,0,0,0,0,.21,1,1,0,0,0,0,.37,1.17,1.17,0,0,0,.2.36,1.46,1.46,0,0,0,.3.31,1.63,1.63,0,0,0,.38.22l.15.05.14,0h.26a.54.54,0,0,0,.19-.07.91.91,0,0,0,.16-.11.59.59,0,0,0,.1-.17.65.65,0,0,0,0-.2,1.19,1.19,0,0,0-.06-.37,1.33,1.33,0,0,0-.19-.35,1.26,1.26,0,0,0-.3-.31A1.57,1.57,0,0,0,34.64,5L34.5,5l-.14,0H34.1"/><path class="cls-1" d="M35.61,13a1.74,1.74,0,0,0-.38.14,1.25,1.25,0,0,0-.3.26,1.13,1.13,0,0,0-.21.35,1.23,1.23,0,0,0-.1.44v.26c0,.08,0,.17,0,.26s.05.17.08.25.07.17.11.26h.91c.31,0,.61,0,.92.05s.6,0,.9.09l.9.13a1.87,1.87,0,0,0-.12-.73A2.8,2.8,0,0,0,38,14a2.9,2.9,0,0,0-.58-.58,2.6,2.6,0,0,0-.73-.4L36.39,13l-.27,0h-.26a1,1,0,0,0-.25,0"/><path class="cls-1" d="M28,8.72a1.09,1.09,0,0,0-.37.14.81.81,0,0,0-.26.26.83.83,0,0,0-.14.35,1.25,1.25,0,0,0,0,.43,1.6,1.6,0,0,0,.23.54,1.92,1.92,0,0,0,.4.46,2.48,2.48,0,0,0,.51.33,2,2,0,0,0,.58.15h.3l.09,0a1,1,0,0,0,.36-.15A.72.72,0,0,0,30,11a1,1,0,0,0,.13-.35,1.21,1.21,0,0,0,0-.42,1.86,1.86,0,0,0-.22-.53,2.74,2.74,0,0,0-.39-.45A2.48,2.48,0,0,0,29,8.87a1.86,1.86,0,0,0-.57-.16H28"/><path class="cls-1" d="M30.23,13.24a1.7,1.7,0,0,0-.53.23,1.45,1.45,0,0,0-.38.4,1.39,1.39,0,0,0-.19.54,1.74,1.74,0,0,0,0,.64c0,.1.05.19.08.29s.07.18.12.27a2.2,2.2,0,0,0,.15.26l.18.25.37-.13.38-.12.38-.11.38-.1.51-.11.51-.1.51-.08.51-.07a2.49,2.49,0,0,0-.33-.77,2.93,2.93,0,0,0-.57-.65,3.15,3.15,0,0,0-.72-.46,2.36,2.36,0,0,0-.82-.21H30.5l-.14,0-.13,0"/><path class="cls-1" d="M32.08,17.4a14.06,14.06,0,0,0-6,3.19,15.11,15.11,0,0,0-4,5.84A18.83,18.83,0,0,0,21,34.3a22.94,22.94,0,0,0,2.35,8.81A24.47,24.47,0,0,0,29,50.6,21.69,21.69,0,0,0,36.29,55a17.3,17.3,0,0,0,7.57.93,14.45,14.45,0,0,0,6.62-2.42A14.63,14.63,0,0,0,55,48.55a17.52,17.52,0,0,0,2-6.16,21.26,21.26,0,0,0-.21-6.64,23.86,23.86,0,0,0-2.34-6.62,24.65,24.65,0,0,0-4.14-5.72A23.13,23.13,0,0,0,45,19.32a19.54,19.54,0,0,0-6.21-2.19,15.78,15.78,0,0,0-6.66.27"/><path class="cls-2" d="M31,22.07c9.79-.33,22.12,4.23,22.45,13.78.11,3.33-4.64,4.2-7.73,4.31a31.77,31.77,0,0,1-5.46-.36c-.51,2.5-.94,5-1.65,7.43l-.22.59c-.07.26-.77,2.77-1.6,2.8a.74.74,0,0,1-.28-.08.8.8,0,0,1-.31.1c-1,0-1.26-2.15-1.29-3-.1-3-.3-7.58,4.11-8.27a28.07,28.07,0,0,0,.42-6.09c0-.25,0-2.52,0-2.61a2.72,2.72,0,0,1,1.33-.38c.19,0,.24.24.25.41a28.1,28.1,0,0,1-.29,4.48c.17-.81.4-2.33,1.07-2.35,0,0,.08,0,.08,0-.64,2.13-1.08,4.26-1.56,6.46a42.4,42.4,0,0,0,5,.26c3.12-.11,6.3-.89,6.2-3.71C51.25,31,39.76,24.68,31.9,25c-2.76.09-4.66,1.21-4.93,3.58l0,.38A11.18,11.18,0,0,0,33.79,35a24.48,24.48,0,0,0,3.86.8c0,.21-.27.3-.43.31-3.73-.47-6.93-1.67-9.35-4.11a6,6,0,0,0,.79,1,17.09,17.09,0,0,0,4.7,3.47l0,.08h-.19c-2.87-.54-7.45-3.8-7.55-7a2.61,2.61,0,0,1,.16-1,6.87,6.87,0,0,1-.38-2,1.75,1.75,0,0,1,0-.51c.26-2.62,3.27-3.9,5.52-4m.92.31c-5,.17-5.65,2.42-5.59,4.4,0,.13.05.3.05.38,1.25-1.64,3.67-2.57,6.44-2.66,4.82-.17,11,2,14.66,4.43,2.26,1.53,5,4,5.13,6.74.06,1.85-1.4,3-3.27,3.69C51,38.84,52.86,37.89,52.8,36c-.3-8.93-13-13.89-20.9-13.62m7,17.46c-2.64,1.4-2.59,7.47-2.57,8a5.67,5.67,0,0,0,.34,1.8,29.5,29.5,0,0,0,1.47-5.57c.23-1.35.54-2.8.76-4.24m-1.61,1.28a3,3,0,0,1,1.37-1.35,2,2,0,0,0-1.37,1.35"/><path class="cls-2" d="M51,42.68c0,1.09-3.52,1.71-4.49,2.09a2,2,0,0,0-.08.65c.06,1.78,2.41,2.45,3.85,2.4a12.19,12.19,0,0,0,7.39-2.88,1.34,1.34,0,0,1,.59-.17c.1,0,.15,0,.16.09s0,.1-.1.2A16.35,16.35,0,0,1,50,48.22c-2.23.08-5.17-.22-5.24-2.3-.09-2.53,2.85-3.77,4.83-3.83,1,0,1.4.25,1.41.59m-4.41,1.74,1-.23c.63-.22,3.26-.46,2.78-1.39-.06-.19-.36-.33-.86-.31a3.21,3.21,0,0,0-2.91,1.93"/><path class="cls-2" d="M59.22,41.06c.15,0,.15,0,.15.15-.22,2.14-.85,4.24-1.17,6.34,2.4-.83,4.14-5.25,6.93-6.29,1.34,0,1.57,2.43,2.05,3.36.8,1.75,1.92,2.66,3.66,2.6a7.38,7.38,0,0,0,5.36-2.81,1.47,1.47,0,0,1,.69-.32c.09,0,.15,0,.15.09a.18.18,0,0,1-.05.15,11.13,11.13,0,0,1-7.17,3.42c-2.28.08-3.9-.86-4.48-3.27a13.91,13.91,0,0,0-.49-2.76c-2.38,1.52-5,6.27-7.28,6.35-.4,0-.52-.78-.54-1.23a14.42,14.42,0,0,1,1.51-5.41c0-.15.43-.36.68-.37"/><path class="cls-2" d="M77.73,41.18c.15,0,.2,0,.2.09a15.29,15.29,0,0,0-.64,4.44c.11.44.14,1.14,1,1.16,2.56-.49,4.64-3.68,6.11-5.72a1.14,1.14,0,0,1,.63-.22c.1,0,.2,0,.16.1-.75,2.8-1.29,6-2,9.39a7.62,7.62,0,0,1,4.61,7c0,.64-.06,1.34-1.1,1.38-.1,0-.15-.05-.15-.1,0-.49.06-1,0-1.54a8.53,8.53,0,0,0-2.88-6l-.61-.38c-1.2,5.5-2.7,11-6.15,14.85-1.72,1.84-4.53,3.77-7.21,3.86S64.83,67.67,64.71,64l0-.55a11.78,11.78,0,0,1-.44-2.61C64,53.75,69.92,48,75.38,47.86A13.58,13.58,0,0,1,82,49.57c.62-2.3,1.19-4.6,1.85-6.86-1.57,1.94-3.48,4.09-5.75,4.56l-.49,0c-1.39.05-1.91-.68-1.94-1.67a8.52,8.52,0,0,1,1.44-4.22c0-.1.44-.21.64-.22m-.53,7.91a13.27,13.27,0,0,1,4.19.55,12.29,12.29,0,0,0-6-1.48c-5.26.18-10.92,5.68-10.67,13.11a8.47,8.47,0,0,0,.09,1.19c.53-4.78,3.85-10.65,8.9-12.61a9.3,9.3,0,0,1,3.54-.76m3.24,6.19,1.37-5.06A12.87,12.87,0,0,0,77,49.34c-7.08.24-11.67,8.24-11.47,14.28.07,2.19,3.09,3.22,4.87,3.16,4.91-.16,8-5.83,10.08-11.5M70,68.88c4.7-.16,7.59-5.62,9-9.49-1.91,3.74-4.81,7.46-9.17,7.61a5.49,5.49,0,0,1-4.23-1.89,4.29,4.29,0,0,0,1,2.2A4,4,0,0,0,70,68.88"/><path class="cls-2" d="M95.54,41.17c0,1.09-3.51,1.71-4.49,2.09a2,2,0,0,0-.08.65c.06,1.78,2.41,2.45,3.85,2.4a12.24,12.24,0,0,0,7.4-2.88,1.25,1.25,0,0,1,.59-.17c.09,0,.15,0,.15.09s0,.1-.1.2a16.44,16.44,0,0,1-8.32,3.16c-2.23.08-5.17-.22-5.24-2.3-.09-2.53,2.85-3.77,4.83-3.83,1,0,1.4.25,1.41.59m-4.41,1.74,1-.23c.64-.22,3.26-.46,2.78-1.39-.06-.19-.36-.33-.85-.31a3.22,3.22,0,0,0-2.92,1.93"/><path class="cls-2" d="M107.4,39.83c0,.54-3.64.87-3.58,2.65,0,1,2.37,1.06,2.41,2.35a.63.63,0,0,1-.09.35c2.48-.08,5-.42,6.88-2.12,0-.1.49-.21.74-.22.09,0,.19,0,.2.09a.18.18,0,0,1,0,.15c-2.21,1.91-5.18,2.16-8,2.45-.92.78-3.49,1.16-4.28,1.19h-.05c-.59,0-1-.21-1.06-.46,0-.64,1.81-.95,3.69-1,0-.49-2.21-.77-2.25-2.05-.06-1.84,3-3.38,5-3.5.25,0,.35.09.35.14m-5.94,6.25c0,.1.65,0,.94,0a2.79,2.79,0,0,0,1.73-.46h-.3a16.32,16.32,0,0,0-2.27.33c-.1.05-.1.1-.1.1"/><path class="cls-2" d="M113.32,46.23c-1.09,0-1.55-.4-1.57-1-.08-2.33,3.91-4.85,6.83-5,.2,0,.35,0,.35.14s-.14.2-.24.26c-1.77.35-5.28,2.26-5.21,4.34,0,.59.32.73.72.72a6.23,6.23,0,0,0,2.59-1.28A36.7,36.7,0,0,0,120,40.59c0-.2.58-.42.83-.42s.2,0,.2.14c0,1-.06,1.14,0,1.59.06,1.93.59,3,2.94,3.42a7.66,7.66,0,0,0,5.46-2.82,1.38,1.38,0,0,1,.74-.22c.1,0,.2,0,.2.09a.21.21,0,0,1,0,.15,13,13,0,0,1-7.23,3.38h0c-2.63.09-3.85-.67-3.9-2.3a5.47,5.47,0,0,1,.29-1.65c-1.67,1.89-3.24,3.93-5.76,4.26Z"/></svg>