<svg id="Layer_1" data-name="Layer 1" xmlns="http://www.w3.org/2000/svg" viewBox="0 0 230 126"><defs><style>.cls-1{fill:#5b4e03;}.cls-2{fill:#fff;}</style></defs><title>Logo_Penyesa_SVGdarkArtboard 1</title><path class="cls-1" d="M33.69,19.33a1.87,1.87,0,0,0-.81.35,1.66,1.66,0,0,0-.5.62,1.87,1.87,0,0,0-.14.82,2.33,2.33,0,0,0,.26.92,3.08,3.08,0,0,0,.63.85,3.49,3.49,0,0,0,.86.62,3.24,3.24,0,0,0,1,.33,2.49,2.49,0,0,0,1,0,1.84,1.84,0,0,0,.8-.36,1.61,1.61,0,0,0,.47-.63,1.82,1.82,0,0,0,.13-.81,2.44,2.44,0,0,0-.27-.9,2.92,2.92,0,0,0-.61-.83,3.65,3.65,0,0,0-.84-.62,3.33,3.33,0,0,0-1-.34,2.69,2.69,0,0,0-1,0"/><path class="cls-1" d="M28.51,13.36a1.53,1.53,0,0,0-.64.24,1.17,1.17,0,0,0-.4.46,1.36,1.36,0,0,0-.11.61,1.75,1.75,0,0,0,.19.7A2.44,2.44,0,0,0,28,16a2.63,2.63,0,0,0,.66.49,2.77,2.77,0,0,0,.76.27,2,2,0,0,0,.77,0,1.49,1.49,0,0,0,.63-.25,1.12,1.12,0,0,0,.38-.46,1.36,1.36,0,0,0,.11-.61,1.84,1.84,0,0,0-.19-.68,2.64,2.64,0,0,0-.47-.64,3.09,3.09,0,0,0-.66-.48,2.5,2.5,0,0,0-.75-.27,2,2,0,0,0-.76,0"/><path class="cls-1" d="M39.7,26.16a2.7,2.7,0,0,0-1.13.54,2.4,2.4,0,0,0-.69.95,2.73,2.73,0,0,0-.18,1.22,3.6,3.6,0,0,0,.39,1.36,2.51,2.51,0,0,0,.26.45,3.32,3.32,0,0,0,.32.42,3.24,3.24,0,0,0,.36.38,3.17,3.17,0,0,0,.39.34c.39-.31.79-.62,1.2-.91s.82-.57,1.24-.84.86-.52,1.3-.76.88-.46,1.34-.67a4.54,4.54,0,0,0-.88-1.19,5.27,5.27,0,0,0-1.19-.87,4.53,4.53,0,0,0-1.36-.45,3.5,3.5,0,0,0-1.37,0"/><path class="cls-1" d="M24.52,26.56l-.18.05-.17.05-.16.07-.16.08a2,2,0,0,0-.69.65,1.79,1.79,0,0,0-.28.85,2.26,2.26,0,0,0,.13,1,3.12,3.12,0,0,0,.57.94,3.29,3.29,0,0,0,.72.63,3.54,3.54,0,0,0,.85.42,3.43,3.43,0,0,0,.89.18,2.76,2.76,0,0,0,.86-.07l.17-.05a.85.85,0,0,0,.17-.06l.16-.07a.83.83,0,0,0,.16-.09,1.79,1.79,0,0,0,.66-.65,1.88,1.88,0,0,0,.26-.84,2.39,2.39,0,0,0-.14-.94,3,3,0,0,0-.56-.91,3.5,3.5,0,0,0-.7-.63,3.93,3.93,0,0,0-.82-.41,4,4,0,0,0-.88-.2,3.52,3.52,0,0,0-.86,0"/><path class="cls-1" d="M32.89,32.09l-.24.07-.24.08-.22.11-.22.12a2.84,2.84,0,0,0-.93,1,2.8,2.8,0,0,0-.37,1.25,3.53,3.53,0,0,0,.22,1.38,4.38,4.38,0,0,0,.81,1.36,5.14,5.14,0,0,0,.4.41l.44.35a4.66,4.66,0,0,0,.47.3c.16.09.33.17.49.24.28-.47.57-.93.87-1.37s.62-.88.94-1.3.66-.83,1-1.23.7-.78,1.07-1.15a5,5,0,0,0-1-.87,5.28,5.28,0,0,0-1.14-.57,4.65,4.65,0,0,0-1.2-.24,3.56,3.56,0,0,0-1.18.1"/><path class="cls-1" d="M18,37.4l-.38.13a2.77,2.77,0,0,0-.66.39,3.57,3.57,0,0,0-.27.28,2,2,0,0,0-.46.92,2.2,2.2,0,0,0,0,1,2.81,2.81,0,0,0,.45,1,3.54,3.54,0,0,0,.88.84,3.63,3.63,0,0,0,1.46.59,3.16,3.16,0,0,0,.75,0,3.39,3.39,0,0,0,.71-.11,2.79,2.79,0,0,0,.37-.14,2.21,2.21,0,0,0,.34-.18,1.7,1.7,0,0,0,.3-.23,1.79,1.79,0,0,0,.27-.28,2.18,2.18,0,0,0,.43-.91,2.25,2.25,0,0,0,0-1,3,3,0,0,0-.46-1,3.46,3.46,0,0,0-.84-.82,3.41,3.41,0,0,0-.7-.38,3.22,3.22,0,0,0-.73-.22,3.12,3.12,0,0,0-.74-.06,3.29,3.29,0,0,0-.71.09"/><path class="cls-1" d="M8.79,34.28a2.8,2.8,0,0,0-.31.09l-.29.13-.26.17-.22.21a1.52,1.52,0,0,0-.39.71,1.62,1.62,0,0,0,0,.79,2.22,2.22,0,0,0,.35.77,2.57,2.57,0,0,0,.69.66,2.23,2.23,0,0,0,.57.3,3.42,3.42,0,0,0,.6.18,3.18,3.18,0,0,0,.61,0,2.25,2.25,0,0,0,.58-.08,1.71,1.71,0,0,0,.3-.09l.28-.14.26-.17a2.18,2.18,0,0,0,.21-.22,1.59,1.59,0,0,0,.37-.7,1.71,1.71,0,0,0,0-.78,2,2,0,0,0-.35-.76,2.6,2.6,0,0,0-.67-.65,3,3,0,0,0-.56-.3,2.48,2.48,0,0,0-.59-.17,3,3,0,0,0-.59-.06,2.71,2.71,0,0,0-.58.07"/><path class="cls-1" d="M28.23,40.62a4.24,4.24,0,0,0-.5.18,2.68,2.68,0,0,0-.47.26,2.59,2.59,0,0,0-.42.32,3.33,3.33,0,0,0-.36.39,3.14,3.14,0,0,0-.6,1.33,3.43,3.43,0,0,0,.05,1.46A4.07,4.07,0,0,0,26.59,46a4.77,4.77,0,0,0,1.22,1.19,5.48,5.48,0,0,0,.52.31,3.54,3.54,0,0,0,.53.23,4.3,4.3,0,0,0,.55.17A3.66,3.66,0,0,0,30,48c.12-.59.25-1.17.4-1.74s.32-1.14.5-1.69.37-1.1.58-1.63.43-1.05.67-1.56a4.43,4.43,0,0,0-.95-.52,4.5,4.5,0,0,0-1-.3,4.21,4.21,0,0,0-1-.07,3.7,3.7,0,0,0-.95.15"/><path class="cls-1" d="M15.22,51.19a2.83,2.83,0,0,0-.59.25,2.34,2.34,0,0,0-.51.36,2.67,2.67,0,0,0-.42.47,3.29,3.29,0,0,0-.29.56A2.58,2.58,0,0,0,13.28,54a2.7,2.7,0,0,0,.36,1.09,3.2,3.2,0,0,0,.78.91,3.56,3.56,0,0,0,1.14.61,4.07,4.07,0,0,0,.58.14,3.73,3.73,0,0,0,.57,0,4.92,4.92,0,0,0,.56,0,4.58,4.58,0,0,0,.53-.14,2.8,2.8,0,0,0,.58-.27,3,3,0,0,0,.49-.37,2.32,2.32,0,0,0,.4-.48,2.56,2.56,0,0,0,.39-1.67,2.92,2.92,0,0,0-.36-1.05,3.19,3.19,0,0,0-.76-.89,3.77,3.77,0,0,0-1.1-.61l-.57-.15a3.66,3.66,0,0,0-.57,0,5.25,5.25,0,0,0-.56,0,2.83,2.83,0,0,0-.52.13"/><path class="cls-1" d="M26.52,51.16a4.13,4.13,0,0,0-.77.35,4.23,4.23,0,0,0-.67.51,3.81,3.81,0,0,0-.54.65,3.76,3.76,0,0,0-.36.79A3.59,3.59,0,0,0,24,55.05a4.16,4.16,0,0,0,.52,1.52,4.91,4.91,0,0,0,1.09,1.28,5.17,5.17,0,0,0,1.55.85,4.65,4.65,0,0,0,.59.15c.2,0,.4.06.59.08h.57l.56-.07c-.08-.66-.13-1.31-.16-2s-.06-1.29-.06-1.93,0-1.27,0-1.9.08-1.24.14-1.86a6.53,6.53,0,0,0-.76-.2,4.76,4.76,0,0,0-.75-.07,5.84,5.84,0,0,0-.73.05,4.2,4.2,0,0,0-.7.17"/><path class="cls-1" d="M17.19,66.49a3.73,3.73,0,0,0-.78.44,2.85,2.85,0,0,0-.62.63,2.74,2.74,0,0,0-.42.77,2.91,2.91,0,0,0-.15.89,2.88,2.88,0,0,0,.24,1.21,3,3,0,0,0,.7,1,3.54,3.54,0,0,0,2.34.93l.36,0a2,2,0,0,0,.35,0l.34-.08a2,2,0,0,0,.31-.12,3,3,0,0,0,.78-.45,3.3,3.3,0,0,0,.6-.64,2.85,2.85,0,0,0,.39-.78,2.8,2.8,0,0,0,.14-.88,2.93,2.93,0,0,0-.25-1.17,2.83,2.83,0,0,0-.69-1,3.18,3.18,0,0,0-1-.67,3.56,3.56,0,0,0-1.26-.28H18.2l-.35,0-.33.08-.33.1"/><path class="cls-1" d="M7,69.61a2.57,2.57,0,0,0-.65.36,2.52,2.52,0,0,0-.53.5,2.42,2.42,0,0,0-.35.63,2.09,2.09,0,0,0-.15.71,2.38,2.38,0,0,0,.18,1,2.53,2.53,0,0,0,.56.79,2.84,2.84,0,0,0,.85.53,3,3,0,0,0,1,.19h.3l.29,0,.28-.07.26-.1a2.44,2.44,0,0,0,.65-.37,2.46,2.46,0,0,0,.51-.51,2.5,2.5,0,0,0,.34-.62,2.34,2.34,0,0,0,.13-.7,2.25,2.25,0,0,0-.18-.94,2.32,2.32,0,0,0-.55-.77,2.62,2.62,0,0,0-.83-.53,2.87,2.87,0,0,0-1-.21h-.3l-.28,0-.28.06L7,69.61"/><path class="cls-1" d="M28.27,62.66a4,4,0,0,0-1,.58,4.08,4.08,0,0,0-.81.85,3.74,3.74,0,0,0-.52,1.06,3.86,3.86,0,0,0-.18,1.23,4.15,4.15,0,0,0,.36,1.68,4.5,4.5,0,0,0,1,1.38,4.76,4.76,0,0,0,1.43,1,4.57,4.57,0,0,0,1.73.36,3.62,3.62,0,0,0,.47,0,3.55,3.55,0,0,0,.47-.06,3,3,0,0,0,.43-.12A2.6,2.6,0,0,0,32,70.4l.11-.05.12-.06.1-.06.11-.06c-.27-.65-.53-1.3-.76-2s-.46-1.3-.66-2-.39-1.3-.55-2-.32-1.3-.45-2h-.47l-.45.05-.43.1a3,3,0,0,0-.42.14"/><path class="cls-1" d="M24,81.33a3.4,3.4,0,0,0-1,.67,3.32,3.32,0,0,0-.65.93,3.26,3.26,0,0,0-.29,1.1,3.13,3.13,0,0,0,.13,1.17,3.16,3.16,0,0,0,.61,1.11,3,3,0,0,0,1,.75,3.1,3.1,0,0,0,1.2.32,3.17,3.17,0,0,0,1.28-.17l.11,0,.12,0,.1,0,.11,0a3.39,3.39,0,0,0,.93-.7,3.22,3.22,0,0,0,.62-.93,3.25,3.25,0,0,0,.13-2.22,3.08,3.08,0,0,0-1.54-1.82A3.16,3.16,0,0,0,25.74,81a3.11,3.11,0,0,0-1.27.14l-.11,0-.11,0-.11,0-.11,0"/><path class="cls-1" d="M33.48,73.74a4.28,4.28,0,0,0-1.25.88,4.18,4.18,0,0,0-.84,1.24A4.46,4.46,0,0,0,31,77.35a4.46,4.46,0,0,0,1,3.14,4.51,4.51,0,0,0,1.33,1.06A4.38,4.38,0,0,0,35,82a4.14,4.14,0,0,0,1.7-.2l.15,0,.15-.06.14-.06.14-.07a2.71,2.71,0,0,0,.37-.21c.12-.08.24-.16.35-.25l.31-.28a4.12,4.12,0,0,0,.28-.31c-.43-.53-.84-1.08-1.25-1.64s-.8-1.13-1.18-1.72-.75-1.18-1.11-1.79-.7-1.22-1-1.85l-.15,0-.14.05-.14.06-.14.06"/><path class="cls-1" d="M34.92,93.58l-.1,0-.09.06-.1.07-.09.06a3.34,3.34,0,0,0-.87,1A3.3,3.3,0,0,0,33.23,96a3.14,3.14,0,0,0,0,1.26,2.89,2.89,0,0,0,.48,1.18,2.94,2.94,0,0,0,.8.81,2.9,2.9,0,0,0,1,.41,2.8,2.8,0,0,0,1.08,0,3.05,3.05,0,0,0,1-.39l.09-.05.09-.07.1-.06L38,99a3.67,3.67,0,0,0,.83-1,3.55,3.55,0,0,0,.39-2.41,3.06,3.06,0,0,0-.48-1.15A2.79,2.79,0,0,0,37,93.26a2.85,2.85,0,0,0-1.05,0,3,3,0,0,0-1,.36"/><path class="cls-1" d="M28.74,102.76l-.08,0-.08,0-.08.06-.08,0a2.92,2.92,0,0,0-1.08,1.78,2.64,2.64,0,0,0,0,1,2.28,2.28,0,0,0,.38.94,2.14,2.14,0,0,0,.63.64,2.29,2.29,0,0,0,1.68.3,2.71,2.71,0,0,0,.86-.34l.08,0,.07,0,.08-.06.07-.06a2.78,2.78,0,0,0,.69-.81,2.63,2.63,0,0,0,.35-1,2.54,2.54,0,0,0,0-1,2.38,2.38,0,0,0-.37-.92,2.15,2.15,0,0,0-.62-.62,2.22,2.22,0,0,0-.78-.32,2.26,2.26,0,0,0-.86,0,2.52,2.52,0,0,0-.85.32"/><path class="cls-1" d="M41.06,83.32a4.4,4.4,0,0,0-1.7,2.85,4.42,4.42,0,0,0,0,1.7,4.52,4.52,0,0,0,.68,1.62,4.16,4.16,0,0,0,1.11,1.14,4,4,0,0,0,1.35.61,3.79,3.79,0,0,0,1.46.07,3.64,3.64,0,0,0,1.41-.48l.13-.08.13-.08.12-.09.12-.09a4.18,4.18,0,0,0,.44-.4,5.54,5.54,0,0,0,.37-.45,3.88,3.88,0,0,0,.3-.48,4.83,4.83,0,0,0,.23-.52c-.54-.38-1.08-.78-1.61-1.19s-1.06-.84-1.57-1.28-1-.91-1.53-1.38-1-1-1.47-1.47"/><path class="cls-1" d="M48.21,101.64l-.25.18-.24.22a2.62,2.62,0,0,0-.22.25,3.4,3.4,0,0,0-.21.28,3.57,3.57,0,0,0-.5,1.17,4,4,0,0,0-.07,1.24,3.33,3.33,0,0,0,.36,1.17,2.84,2.84,0,0,0,.75.94,2.39,2.39,0,0,0,.74.42,2.76,2.76,0,0,0,.8.15,2.69,2.69,0,0,0,.79-.11,2.87,2.87,0,0,0,.75-.36,2.19,2.19,0,0,0,.25-.2,1.19,1.19,0,0,0,.23-.22,2.5,2.5,0,0,0,.22-.24,2.75,2.75,0,0,0,.19-.28,3.52,3.52,0,0,0,.47-1.18,3.58,3.58,0,0,0,0-1.22,3.44,3.44,0,0,0-.35-1.14,2.93,2.93,0,0,0-.73-.91,2.42,2.42,0,0,0-.72-.42,2.33,2.33,0,0,0-1.56-.07,2.49,2.49,0,0,0-.75.33"/><path class="cls-1" d="M50.23,90.54a4.32,4.32,0,0,0-.67,1.56A4.87,4.87,0,0,0,50,95.4,4.35,4.35,0,0,0,51,96.72a3.64,3.64,0,0,0,1,.61,3.31,3.31,0,0,0,1.1.25,3.71,3.71,0,0,0,1.1-.11,3.87,3.87,0,0,0,1-.46,3.53,3.53,0,0,0,.34-.24c.11-.09.21-.19.31-.29a3.18,3.18,0,0,0,.3-.33,3.47,3.47,0,0,0,.26-.37,3.15,3.15,0,0,0,.28-.51q.12-.27.21-.54c.06-.19.1-.38.14-.56a5.54,5.54,0,0,0,.07-.57c-.59-.19-1.18-.39-1.76-.61s-1.17-.46-1.75-.72-1.17-.52-1.74-.81-1.15-.6-1.72-.92"/><path class="cls-1" d="M62,104.84a2.73,2.73,0,0,0-.37.32,2.85,2.85,0,0,0-.31.38,4.25,4.25,0,0,0-.27.46,4.76,4.76,0,0,0-.19.53,3.72,3.72,0,0,0-.13,1.23,3.44,3.44,0,0,0,.26,1.16,3,3,0,0,0,.61,1,2.32,2.32,0,0,0,.9.61,2.2,2.2,0,0,0,.55.13,2,2,0,0,0,.55,0,1.91,1.91,0,0,0,.53-.16,2.68,2.68,0,0,0,.49-.28,3.7,3.7,0,0,0,.36-.33,3.25,3.25,0,0,0,.31-.4,5,5,0,0,0,.25-.46,3.66,3.66,0,0,0,.18-.53,3.76,3.76,0,0,0-.15-2.34,3.37,3.37,0,0,0-.59-.92,2.51,2.51,0,0,0-.88-.6,2.15,2.15,0,0,0-.54-.14,2,2,0,0,0-.55,0,2.65,2.65,0,0,0-1,.41"/><path class="cls-1" d="M61.94,115.52a1.73,1.73,0,0,0-.28.26,2.51,2.51,0,0,0-.25.32,2.82,2.82,0,0,0-.21.38,2.72,2.72,0,0,0-.15.43,3.06,3.06,0,0,0-.1,1,2.81,2.81,0,0,0,.21.92,2.28,2.28,0,0,0,.47.74,1.76,1.76,0,0,0,.69.45,1.72,1.72,0,0,0,.44.09,1.53,1.53,0,0,0,.43,0,1.85,1.85,0,0,0,.8-.38,2.37,2.37,0,0,0,.28-.27,2.8,2.8,0,0,0,.24-.33,3.39,3.39,0,0,0,.2-.38,3.09,3.09,0,0,0,.14-.43,3.06,3.06,0,0,0-.11-1.87,2.77,2.77,0,0,0-.47-.73,1.72,1.72,0,0,0-.68-.45,2.23,2.23,0,0,0-.43-.1,1.56,1.56,0,0,0-.43,0,1.51,1.51,0,0,0-.41.13,2.14,2.14,0,0,0-.38.23"/><path class="cls-1" d="M60.35,94.44a5.05,5.05,0,0,0-.19,1.68,5.12,5.12,0,0,0,.38,1.61,4.46,4.46,0,0,0,.86,1.34,3.68,3.68,0,0,0,1.26.88,3.12,3.12,0,0,0,1.58.23A3.83,3.83,0,0,0,65,100a3.44,3.44,0,0,0,.68-.37,4.06,4.06,0,0,0,.51-.42,4.52,4.52,0,0,0,.43-.53,4.1,4.1,0,0,0,.34-.62,3.72,3.72,0,0,0,.26-.71,3.47,3.47,0,0,0,.11-.56,5.48,5.48,0,0,0,0-.57c0-.19,0-.37,0-.56s0-.36-.08-.55c-.57,0-1.13,0-1.71,0S64.41,95,63.83,95s-1.15-.13-1.73-.22-1.17-.2-1.75-.32"/><path class="cls-1" d="M74.71,103.4a2.23,2.23,0,0,0-.44.43,2.66,2.66,0,0,0-.33.57,2.69,2.69,0,0,0-.22.66,3.6,3.6,0,0,0,.11,1.91,3.5,3.5,0,0,0,.5,1,2.32,2.32,0,0,0,.75.65,1.82,1.82,0,0,0,.9.27l.34,0a2.72,2.72,0,0,0,.63-.22,2.43,2.43,0,0,0,.28-.2,2.25,2.25,0,0,0,.43-.44,3.49,3.49,0,0,0,.32-.57,3,3,0,0,0,.2-.66,3.64,3.64,0,0,0,.07-.74,3.49,3.49,0,0,0-.19-1.14,3.25,3.25,0,0,0-.5-.94,2.43,2.43,0,0,0-.72-.64A1.87,1.87,0,0,0,76,103a1.83,1.83,0,0,0-.33,0,1.14,1.14,0,0,0-.32.07,1.2,1.2,0,0,0-.31.13,2.2,2.2,0,0,0-.28.18"/><path class="cls-1" d="M70.21,94.89a5.72,5.72,0,0,0,.26,1.62,4.67,4.67,0,0,0,.73,1.36,3.48,3.48,0,0,0,1.07,1,2.88,2.88,0,0,0,1.3.41,2.09,2.09,0,0,0,.5,0,3.73,3.73,0,0,0,.46-.09A3.38,3.38,0,0,0,75,99a2.06,2.06,0,0,0,.4-.25,2.71,2.71,0,0,0,.62-.6,3.68,3.68,0,0,0,.47-.77,4.22,4.22,0,0,0,.3-.91,4.77,4.77,0,0,0,.1-1c0-.18,0-.37,0-.55a3.41,3.41,0,0,0-.1-.54c0-.17-.09-.34-.14-.51s-.13-.33-.2-.48c-.49.19-1,.37-1.49.53s-1,.3-1.52.43-1,.25-1.56.35-1.06.18-1.6.25"/><path class="cls-1" d="M85.14,98.14a2.07,2.07,0,0,0-.48.54,2.57,2.57,0,0,0-.31.72,3.22,3.22,0,0,0-.11.84,3.52,3.52,0,0,0,.11.9,3.38,3.38,0,0,0,.41,1,2.48,2.48,0,0,0,.65.71,1.85,1.85,0,0,0,.78.36,1.53,1.53,0,0,0,.82,0l.14-.06.14-.07.13-.08.12-.09a2.28,2.28,0,0,0,.47-.55,3.15,3.15,0,0,0,.39-1.56,3.45,3.45,0,0,0-.12-.88,3.2,3.2,0,0,0-.41-1,2.38,2.38,0,0,0-.63-.7,1.92,1.92,0,0,0-.76-.37,1.49,1.49,0,0,0-.81,0l-.15,0-.13.06-.13.08-.12.08"/><path class="cls-1" d="M89.18,106.25a1.74,1.74,0,0,0-.35.44,2,2,0,0,0-.22.56,2.39,2.39,0,0,0-.08.66,2.8,2.8,0,0,0,.09.7,2.49,2.49,0,0,0,.32.76,1.93,1.93,0,0,0,.49.53,1.38,1.38,0,0,0,.59.27,1.16,1.16,0,0,0,.61-.06l.11,0,.1,0,.1-.06.09-.08a1.94,1.94,0,0,0,.35-.44,2.58,2.58,0,0,0,.21-.57,2.81,2.81,0,0,0,.07-.65,3.26,3.26,0,0,0-.09-.69,3,3,0,0,0-.32-.75,2.24,2.24,0,0,0-.48-.53,1.51,1.51,0,0,0-.58-.26,1.16,1.16,0,0,0-.61,0l-.11,0-.1.06-.09.06-.1.07"/><path class="cls-1" d="M78.87,92.19a4.77,4.77,0,0,0,.61,1.42,3.78,3.78,0,0,0,.94,1,2.94,2.94,0,0,0,1.14.55,2.52,2.52,0,0,0,1.22,0L83,95.1l.2-.09.19-.11a.83.83,0,0,0,.18-.13,2.64,2.64,0,0,0,.7-.75,3.75,3.75,0,0,0,.44-1,4.39,4.39,0,0,0,.16-1.16,4.91,4.91,0,0,0-.15-1.25c0-.17-.1-.34-.16-.51s-.14-.32-.21-.47-.16-.29-.25-.43a3.89,3.89,0,0,0-.28-.39l-.49.42-.5.41-.52.4-.52.38c-.24.17-.47.33-.71.48s-.48.31-.72.45-.49.3-.73.43l-.75.41"/><path class="cls-1" d="M92.76,90.15a1.62,1.62,0,0,0-.51.62,2.68,2.68,0,0,0-.25.86,3.11,3.11,0,0,0,0,1,3.31,3.31,0,0,0,.33,1,2.91,2.91,0,0,0,.57.78,2.1,2.1,0,0,0,.69.45,1.58,1.58,0,0,0,.74.09,1.34,1.34,0,0,0,.68-.3,1.74,1.74,0,0,0,.49-.64,2.24,2.24,0,0,0,.23-.85,3.12,3.12,0,0,0,0-1,3,3,0,0,0-.32-.94,2.75,2.75,0,0,0-.55-.76,2.4,2.4,0,0,0-.69-.45,1.49,1.49,0,0,0-.72-.1,1.31,1.31,0,0,0-.68.28"/><path class="cls-1" d="M89.16,82.29c-.25.42-.5.83-.76,1.23s-.55.81-.83,1.2-.59.78-.9,1.15-.64.75-1,1.11a4.32,4.32,0,0,0,.84,1.14,3.23,3.23,0,0,0,1,.67,2.26,2.26,0,0,0,1.11.16,2.08,2.08,0,0,0,1-.41,2.53,2.53,0,0,0,.75-.9,3.42,3.42,0,0,0,.37-1.21,4.45,4.45,0,0,0,0-1.36,5,5,0,0,0-.46-1.37c-.08-.14-.16-.29-.25-.42s-.18-.26-.28-.38-.21-.22-.31-.33l-.33-.28"/><path class="cls-1" d="M98.61,59.09a.88.88,0,0,0-.24.19,1.35,1.35,0,0,0-.2.27,1.59,1.59,0,0,0-.13.35,2.37,2.37,0,0,0-.06.41,2.44,2.44,0,0,0,.1.8,3.06,3.06,0,0,0,.32.77,3.26,3.26,0,0,0,.51.64,2.27,2.27,0,0,0,.63.41,1.34,1.34,0,0,0,.31.09.93.93,0,0,0,.29,0,.78.78,0,0,0,.26,0,1.22,1.22,0,0,0,.24-.1,1.57,1.57,0,0,0,.24-.21,1.06,1.06,0,0,0,.18-.27,1.33,1.33,0,0,0,.13-.35,1.68,1.68,0,0,0,0-.4,2.69,2.69,0,0,0-.09-.8,3.16,3.16,0,0,0-.33-.75,3.12,3.12,0,0,0-.49-.63,2.2,2.2,0,0,0-.63-.41,1.18,1.18,0,0,0-.3-.1l-.28,0a1.26,1.26,0,0,0-.27,0,1.22,1.22,0,0,0-.24.1"/><path class="cls-1" d="M103.79,60l-.17.14a.77.77,0,0,0-.14.21,1.45,1.45,0,0,0-.09.25,1.39,1.39,0,0,0,0,.3,1.77,1.77,0,0,0,.08.6,2,2,0,0,0,.24.57,1.92,1.92,0,0,0,.37.47,1.69,1.69,0,0,0,.46.31l.22.07a.74.74,0,0,0,.21,0,.63.63,0,0,0,.19,0l.17-.07a1.29,1.29,0,0,0,.17-.16.78.78,0,0,0,.14-.2,1.6,1.6,0,0,0,.08-.26,1.36,1.36,0,0,0,0-.3,2.08,2.08,0,0,0-.09-.6,2.24,2.24,0,0,0-.24-.55,2.16,2.16,0,0,0-.36-.47,1.58,1.58,0,0,0-.46-.3.7.7,0,0,0-.22-.07.75.75,0,0,0-.21,0l-.19,0-.17.08"/><path class="cls-1" d="M92.16,57.44c.11.49.22,1,.32,1.48s.19,1,.27,1.48.15,1,.21,1.48.11,1,.15,1.48a3,3,0,0,0,.47.13,3.25,3.25,0,0,0,.44,0,2,2,0,0,0,.41-.07,1.65,1.65,0,0,0,.36-.16,1.57,1.57,0,0,0,.38-.3,1.73,1.73,0,0,0,.3-.41,2.18,2.18,0,0,0,.21-.52,3.72,3.72,0,0,0,.09-.61,3.79,3.79,0,0,0-.14-1.2,4.23,4.23,0,0,0-.47-1.12,4.31,4.31,0,0,0-.75-.94,3.35,3.35,0,0,0-1-.63,1.5,1.5,0,0,0-.34-.11l-.34-.06h-.32a1,1,0,0,0-.3,0"/><path class="cls-1" d="M95.63,48.66a.88.88,0,0,0-.33.24,1.4,1.4,0,0,0-.22.38,1.7,1.7,0,0,0-.1.47,2.25,2.25,0,0,0,0,.57,2.84,2.84,0,0,0,.72,1.44,2.44,2.44,0,0,0,.59.49,1.53,1.53,0,0,0,.64.22h.18l.15,0,.16,0,.14-.06a1,1,0,0,0,.31-.26,1.07,1.07,0,0,0,.21-.38,1.7,1.7,0,0,0,.1-.47,2.2,2.2,0,0,0,0-.56,2.91,2.91,0,0,0-.26-.77,3,3,0,0,0-.45-.65,2.31,2.31,0,0,0-.57-.48,1.83,1.83,0,0,0-.64-.23.49.49,0,0,0-.17,0h-.16a.9.9,0,0,0-.16,0,.75.75,0,0,0-.13.06"/><path class="cls-1" d="M89.44,49.06l0,0-.06,0-.06,0s0,0,0,0c.22.47.44.93.64,1.4s.4.94.58,1.41.36.94.53,1.42.32.94.47,1.41a1.15,1.15,0,0,0,.26,0,1,1,0,0,0,.25,0,.86.86,0,0,0,.23-.06,1,1,0,0,0,.22-.09,1.66,1.66,0,0,0,.49-.39,2.06,2.06,0,0,0,.34-.58,2.71,2.71,0,0,0,.15-.72,4.07,4.07,0,0,0,0-.84A4.8,4.8,0,0,0,93,51a4.89,4.89,0,0,0-.68-1,3.92,3.92,0,0,0-.87-.72,2.65,2.65,0,0,0-1-.34l-.26,0-.25,0-.24,0-.22.08"/><path class="cls-1" d="M90.59,39a.85.85,0,0,0-.4.3,1.11,1.11,0,0,0-.23.49,1.78,1.78,0,0,0,0,.62,2.35,2.35,0,0,0,.18.69,2.81,2.81,0,0,0,.41.72,3,3,0,0,0,.57.55,2.08,2.08,0,0,0,.63.32,1.31,1.31,0,0,0,.62,0h.06l0,0h0l.05,0a1,1,0,0,0,.4-.31,1.52,1.52,0,0,0,.22-.5,1.75,1.75,0,0,0,0-.61,2.35,2.35,0,0,0-.18-.69,3.29,3.29,0,0,0-.41-.71,2.81,2.81,0,0,0-.55-.54,2.12,2.12,0,0,0-.62-.31,1.24,1.24,0,0,0-.63,0h-.1l0,0,0,0"/><path class="cls-1" d="M94.49,37.06a.64.64,0,0,0-.29.22,1,1,0,0,0-.16.35,1.39,1.39,0,0,0,0,.46,2.18,2.18,0,0,0,.14.51,2.54,2.54,0,0,0,.31.53,1.94,1.94,0,0,0,.41.4,1.69,1.69,0,0,0,.46.24,1,1,0,0,0,.45,0h.08l0,0h0a.67.67,0,0,0,.28-.22.85.85,0,0,0,.16-.36,1.35,1.35,0,0,0,0-.45,2.05,2.05,0,0,0-.14-.51,2.14,2.14,0,0,0-.71-.92,1.51,1.51,0,0,0-.45-.24,1,1,0,0,0-.45,0h-.15"/><path class="cls-1" d="M85.35,41.14a.93.93,0,0,0-.2.1l-.19.12-.16.15a1.15,1.15,0,0,0-.14.17c.3.4.59.8.88,1.22s.57.83.85,1.25.54.86.81,1.3.52.88.77,1.33l.08,0,.08,0,.07,0,.08,0a1.58,1.58,0,0,0,.62-.49,1.89,1.89,0,0,0,.34-.76,2.87,2.87,0,0,0,.06-.94,3.9,3.9,0,0,0-.27-1,4.47,4.47,0,0,0-.62-1.06,4,4,0,0,0-.83-.81,3.65,3.65,0,0,0-1-.47,2.15,2.15,0,0,0-1-.06l-.08,0-.08,0-.08,0-.07,0"/><path class="cls-1" d="M83.77,30.45h0l0,0,0,0,0,0a1.08,1.08,0,0,0-.4.42,1.4,1.4,0,0,0-.15.6,2.08,2.08,0,0,0,.1.72,2.76,2.76,0,0,0,.35.74,2.87,2.87,0,0,0,.51.58,2.41,2.41,0,0,0,.58.4,1.73,1.73,0,0,0,.59.18,1.31,1.31,0,0,0,.56-.05l0,0,0,0,0,0,0,0a1.05,1.05,0,0,0,.39-.42,1.52,1.52,0,0,0,.14-.61,2.05,2.05,0,0,0-.11-.71,2.94,2.94,0,0,0-1.41-1.7,1.83,1.83,0,0,0-.59-.18,1.13,1.13,0,0,0-.55,0"/><path class="cls-1" d="M79.74,34.17l-.08,0-.07,0-.08,0-.07,0a1.64,1.64,0,0,0-.25.19,1.1,1.1,0,0,0-.21.22,2.33,2.33,0,0,0-.17.26,1.88,1.88,0,0,0-.12.3c.37.33.75.67,1.11,1s.73.69,1.09,1l1,1.1q.51.55,1,1.14a1.82,1.82,0,0,0,.59-.67,2.31,2.31,0,0,0,.21-.93,2.92,2.92,0,0,0-.15-1.07,4.07,4.07,0,0,0-.52-1.1,4.39,4.39,0,0,0-.74-.85,3.66,3.66,0,0,0-.86-.59,2.81,2.81,0,0,0-.9-.27,2,2,0,0,0-.85.08"/><path class="cls-1" d="M75.39,23.42l-.15,0-.14.08a.38.38,0,0,0-.13.09l-.12.11a1.24,1.24,0,0,0-.26.57,1.8,1.8,0,0,0,0,.69,2.39,2.39,0,0,0,.28.74,2.84,2.84,0,0,0,.52.69,2.6,2.6,0,0,0,.49.4,2.19,2.19,0,0,0,.51.25,1.88,1.88,0,0,0,.5.11,1.33,1.33,0,0,0,.45-.05.66.66,0,0,0,.15,0l.14-.08.13-.1a.65.65,0,0,0,.11-.12,1.24,1.24,0,0,0,.25-.56,1.62,1.62,0,0,0,0-.69,2.7,2.7,0,0,0-.27-.73,3,3,0,0,0-1-1.07,2.13,2.13,0,0,0-.5-.25,2.42,2.42,0,0,0-.5-.12,1.39,1.39,0,0,0-.46,0"/><path class="cls-1" d="M77.23,19.2l-.11,0-.11.05-.09.07a.3.3,0,0,0-.08.08.82.82,0,0,0-.19.41,1.26,1.26,0,0,0,0,.51,2,2,0,0,0,.21.54,2.6,2.6,0,0,0,.38.51,2.38,2.38,0,0,0,.36.3,2.81,2.81,0,0,0,.38.2,1.63,1.63,0,0,0,.37.08,1.17,1.17,0,0,0,.33,0l.11,0,.1-.05.1-.07a.6.6,0,0,0,.08-.08.8.8,0,0,0,.18-.41,1.27,1.27,0,0,0,0-.51,2,2,0,0,0-.2-.53,2.6,2.6,0,0,0-.38-.51,2,2,0,0,0-.36-.29,1.33,1.33,0,0,0-.37-.2,1.27,1.27,0,0,0-.36-.09,1,1,0,0,0-.34,0"/><path class="cls-1" d="M72.83,28.51l-.23.09-.21.11-.2.15L72,29a2.75,2.75,0,0,0-.19.28,1.6,1.6,0,0,0-.13.3,1.32,1.32,0,0,0-.08.33,2.2,2.2,0,0,0,0,.36c.44.24.87.48,1.3.74s.85.52,1.27.79.83.55,1.24.84.82.58,1.22.89a2,2,0,0,0,.37-.89,2.88,2.88,0,0,0,0-1.05,4.41,4.41,0,0,0-.41-1.09,4.83,4.83,0,0,0-.77-1A4.19,4.19,0,0,0,75,29a3.48,3.48,0,0,0-.75-.37,2.63,2.63,0,0,0-.76-.15,2.32,2.32,0,0,0-.7.07"/><path class="cls-1" d="M65.75,18.32a1.07,1.07,0,0,0-.27.09,1.2,1.2,0,0,0-.24.15,1.29,1.29,0,0,0-.19.21,1,1,0,0,0-.14.25,1.51,1.51,0,0,0-.09.7,2.38,2.38,0,0,0,.2.76,3,3,0,0,0,.47.72,3.2,3.2,0,0,0,.67.6,2.82,2.82,0,0,0,.42.22,2.58,2.58,0,0,0,.42.14,2.91,2.91,0,0,0,.4.05,2,2,0,0,0,.36-.05,1.07,1.07,0,0,0,.27-.09,1.34,1.34,0,0,0,.23-.16,1,1,0,0,0,.19-.21,1.27,1.27,0,0,0,.21-.95,2.32,2.32,0,0,0-.2-.75,3,3,0,0,0-.46-.7,3.13,3.13,0,0,0-.66-.59,2.91,2.91,0,0,0-.42-.23,2,2,0,0,0-.41-.14,1.81,1.81,0,0,0-.39-.05,1.5,1.5,0,0,0-.37,0"/><path class="cls-1" d="M65,24.52a1.84,1.84,0,0,0-.41.16,1.41,1.41,0,0,0-.36.24,2.26,2.26,0,0,0-.29.32,1.69,1.69,0,0,0-.21.4,1.48,1.48,0,0,0-.1.36,2.08,2.08,0,0,0-.05.36c0,.13,0,.26,0,.39s0,.25.07.39c.47.12.95.26,1.42.4s.93.3,1.4.47.92.34,1.38.53.91.38,1.37.58a2.5,2.5,0,0,0,.1-1.06A3.36,3.36,0,0,0,69,26.94a4.77,4.77,0,0,0-.67-1.05,4.72,4.72,0,0,0-1-.85,4.12,4.12,0,0,0-.62-.33,2.86,2.86,0,0,0-.61-.19,3,3,0,0,0-.59-.06,2.44,2.44,0,0,0-.55.06"/><path class="cls-1" d="M55.21,15.61a1.11,1.11,0,0,0-.41.14,1.46,1.46,0,0,0-.34.26,1.31,1.31,0,0,0-.23.36,1.63,1.63,0,0,0-.1.46,1.88,1.88,0,0,0,.12.8,2.87,2.87,0,0,0,.41.77,3.21,3.21,0,0,0,1.47,1.11,1.81,1.81,0,0,0,.31.09l.3,0a2.62,2.62,0,0,0,.28,0,1.09,1.09,0,0,0,.26,0,1.67,1.67,0,0,0,.41-.16A1.06,1.06,0,0,0,58,19.2a1.65,1.65,0,0,0,.22-.36,1.63,1.63,0,0,0,.09-.46,2,2,0,0,0-.12-.79,2.82,2.82,0,0,0-.41-.76,3.18,3.18,0,0,0-.63-.64,3.34,3.34,0,0,0-.8-.45,2.22,2.22,0,0,0-.31-.1l-.3-.05a1.34,1.34,0,0,0-.28,0l-.27,0"/><path class="cls-1" d="M54,9.77a1,1,0,0,0-.31.09.79.79,0,0,0-.25.19,1,1,0,0,0-.18.26,1.14,1.14,0,0,0-.08.33,1.54,1.54,0,0,0,.09.59,2.18,2.18,0,0,0,.31.58,2.57,2.57,0,0,0,.49.5,2.62,2.62,0,0,0,.61.35l.23.07.23,0h.41a1.25,1.25,0,0,0,.31-.11.79.79,0,0,0,.25-.19,1,1,0,0,0,.17-.26,1.14,1.14,0,0,0,.07-.33,1.47,1.47,0,0,0-.09-.58,2.23,2.23,0,0,0-.3-.57,2.78,2.78,0,0,0-.48-.49,2.19,2.19,0,0,0-.61-.35l-.23-.08-.22-.05h-.22l-.2,0"/><path class="cls-1" d="M56.47,22.58a2.22,2.22,0,0,0-.62.24,1.87,1.87,0,0,0-.49.4,2,2,0,0,0-.33.56,2,2,0,0,0-.15.71,2.8,2.8,0,0,0,0,.41,1.85,1.85,0,0,0,.07.41,3.31,3.31,0,0,0,.12.42,2.28,2.28,0,0,0,.17.4c.49,0,1,0,1.47,0s1,0,1.46.07l1.45.15c.48.06,1,.13,1.43.21a3,3,0,0,0-.19-1.18,4.19,4.19,0,0,0-.61-1.11,4.5,4.5,0,0,0-.92-.93,4.45,4.45,0,0,0-1.17-.64l-.45-.13-.44-.06h-.41a2.28,2.28,0,0,0-.39.06"/><path class="cls-1" d="M44.29,15.78a1.81,1.81,0,0,0-.59.22,1.3,1.3,0,0,0-.42.42,1.32,1.32,0,0,0-.22.56,1.8,1.8,0,0,0,0,.69,2.39,2.39,0,0,0,.36.86,3.38,3.38,0,0,0,.63.73,3.34,3.34,0,0,0,.83.53,3.06,3.06,0,0,0,.93.25h.32l.15,0,.15,0a1.69,1.69,0,0,0,.58-.24,1.34,1.34,0,0,0,.41-.41,1.55,1.55,0,0,0,.2-.57,1.75,1.75,0,0,0,0-.68,2.81,2.81,0,0,0-.36-.84,3.82,3.82,0,0,0-.62-.72,3.65,3.65,0,0,0-.81-.53,3.26,3.26,0,0,0-.91-.26h-.48l-.15,0"/><path class="cls-1" d="M47.85,23a2.47,2.47,0,0,0-.86.37,2.12,2.12,0,0,0-.6.63,2.32,2.32,0,0,0-.31.87,2.79,2.79,0,0,0,0,1,2.32,2.32,0,0,0,.13.45,2.44,2.44,0,0,0,.19.44,2.86,2.86,0,0,0,.24.42c.09.14.18.27.28.4l.6-.21.6-.19.61-.17.62-.16.81-.19c.27-.05.54-.11.82-.15l.81-.14.82-.1a4.11,4.11,0,0,0-.53-1.24,4.68,4.68,0,0,0-.91-1,4.61,4.61,0,0,0-1.16-.75A4.3,4.3,0,0,0,48.74,23h-.46l-.22,0-.21,0"/><path class="cls-1" d="M50.8,29.67a22.6,22.6,0,0,0-9.54,5.12,24.34,24.34,0,0,0-6.34,9.35A30.14,30.14,0,0,0,33,56.75a36.83,36.83,0,0,0,3.77,14.1,39.18,39.18,0,0,0,9,12,34.94,34.94,0,0,0,11.73,7,27.7,27.7,0,0,0,12.11,1.49,23,23,0,0,0,10.61-3.88,23.3,23.3,0,0,0,7.2-7.9,27.64,27.64,0,0,0,3.22-9.87,33.77,33.77,0,0,0-.34-10.63,38,38,0,0,0-3.74-10.6A39.45,39.45,0,0,0,80,39.31a36.88,36.88,0,0,0-8.57-6.56,31.42,31.42,0,0,0-9.94-3.51,25.64,25.64,0,0,0-10.67.43"/><path class="cls-2" d="M49,37.16C64.72,36.63,84.47,43.92,85,59.22c.18,5.33-7.43,6.73-12.37,6.9a51,51,0,0,1-8.75-.58c-.82,4-1.5,8-2.64,11.9l-.35,1c-.11.41-1.24,4.43-2.57,4.48a1.21,1.21,0,0,1-.44-.12,1.65,1.65,0,0,1-.51.15c-1.58,0-2-3.44-2-4.72-.17-4.86-.48-12.13,6.57-13.25a45.15,45.15,0,0,0,.69-9.74c0-.4-.08-4-.08-4.18a4.32,4.32,0,0,1,2.13-.61c.32,0,.39.39.4.66a45.58,45.58,0,0,1-.45,7.17c.27-1.3.63-3.74,1.71-3.77.06,0,.12,0,.12.06-1,3.41-1.73,6.81-2.49,10.34a68,68,0,0,0,7.92.41c5-.17,10.09-1.42,9.93-5.94-.26-7.82-18.65-18-31.23-17.57-4.43.15-7.47,1.94-7.91,5.74l0,.61a18,18,0,0,0,11,9.75,38.62,38.62,0,0,0,6.18,1.27.68.68,0,0,1-.68.5c-6-.74-11.1-2.66-15-6.58a10.66,10.66,0,0,0,1.26,1.58,27.68,27.68,0,0,0,7.53,5.55l.07.13h-.32c-4.59-.86-11.92-6.08-12.09-11.2a4.68,4.68,0,0,1,.26-1.63,10.91,10.91,0,0,1-.61-3.15,3.66,3.66,0,0,1,0-.81c.43-4.2,5.24-6.25,8.84-6.37m1.47.49c-8,.27-9,3.88-8.94,7.05,0,.2.08.47.09.6,2-2.63,5.87-4.11,10.3-4.26,7.71-.26,17.58,3.18,23.47,7.1,3.63,2.44,8.07,6.47,8.22,10.79.1,3-2.24,4.87-5.25,5.91,2.76-.83,5.69-2.35,5.58-5.38C83.5,45.17,63.16,37.22,50.51,37.65m11.21,28c-4.23,2.24-4.16,12-4.13,12.83a9.39,9.39,0,0,0,.54,2.88c1.25-2.54,1.92-7,2.36-8.92.37-2.17.86-4.48,1.23-6.79m-2.59,2a4.83,4.83,0,0,1,2.2-2.17,3.24,3.24,0,0,0-2.2,2.17"/><path class="cls-2" d="M81.08,70.16c.06,1.75-5.62,2.73-7.19,3.34a3.67,3.67,0,0,0-.13,1c.1,2.86,3.87,3.92,6.17,3.84a19.48,19.48,0,0,0,11.84-4.61,2,2,0,0,1,1-.27c.15,0,.24.07.24.15s-.07.16-.15.32c-4,2.68-8.65,4.9-13.33,5.06-3.57.12-8.28-.35-8.39-3.68-.14-4,4.56-6,7.74-6.15,1.66,0,2.24.41,2.25,1m-7,2.78,1.57-.37c1-.35,5.22-.73,4.46-2.22-.09-.31-.58-.53-1.37-.51A5.15,5.15,0,0,0,74,72.94"/><path class="cls-2" d="M94.26,67.57c.24,0,.24.07.25.23-.36,3.43-1.36,6.8-1.88,10.15,3.85-1.32,6.62-8.41,11.1-10.07,2.14-.07,2.51,3.89,3.28,5.37,1.28,2.82,3.08,4.27,5.86,4.17,3.49-.11,6.29-1.88,8.58-4.5a2.44,2.44,0,0,1,1.1-.51c.16,0,.24.07.24.15a.26.26,0,0,1-.07.24c-3.08,3-7,5.32-11.49,5.47-3.65.13-6.24-1.37-7.17-5.23-.37-1.42-.1-3-.78-4.43-3.82,2.44-8.09,10-11.66,10.17-.63,0-.83-1.24-.86-2-.09-2.85,1.67-7.12,2.41-8.66a1.5,1.5,0,0,1,1.09-.59"/><path class="cls-2" d="M123.9,67.76c.24,0,.32.06.32.14a25,25,0,0,0-1,7.11c.19.71.22,1.82,1.58,1.85,4.1-.77,7.42-5.89,9.78-9.15a1.79,1.79,0,0,1,1-.35c.15,0,.31,0,.24.15-1.2,4.49-2.06,9.68-3.15,15,4.53,2.23,7.19,5.8,7.38,11.27,0,1-.09,2.15-1.75,2.21-.16,0-.25-.07-.25-.15,0-.8.1-1.68.08-2.47a13.67,13.67,0,0,0-4.62-9.53l-1-.61c-1.93,8.81-4.33,17.63-9.84,23.77-2.76,3-7.26,6-11.55,6.19-4,.14-7.89-3.07-8.09-9l0-.87a19.62,19.62,0,0,1-.7-4.19c-.38-11.27,9.08-20.4,17.81-20.7a21.77,21.77,0,0,1,10.58,2.74c1-3.69,1.9-7.37,3-11-2.52,3.1-5.58,6.54-9.21,7.3l-.79,0c-2.23.07-3.06-1.09-3.11-2.68-.08-2.22,1.25-5.13,2.31-6.75.07-.16.7-.34,1-.35m-.84,12.66a21.23,21.23,0,0,1,6.7.88,19.69,19.69,0,0,0-9.69-2.37c-8.41.28-17.49,9.09-17.08,21a14.57,14.57,0,0,0,.14,1.91c.85-7.66,6.17-17,14.25-20.19a15,15,0,0,1,5.68-1.22m5.18,9.91,2.19-8.1a20.28,20.28,0,0,0-7.75-1.4C111.33,81.21,104,94,104.3,103.69c.12,3.49,5,5.16,7.8,5.06,7.86-.26,12.87-9.33,16.14-18.42m-16.66,21.78c7.54-.26,12.17-9,14.42-15.19-3,6-7.7,11.94-14.68,12.18a8.76,8.76,0,0,1-6.78-3,6.88,6.88,0,0,0,1.63,3.52,6.34,6.34,0,0,0,5.41,2.52"/><path class="cls-2" d="M152.42,67.74c.06,1.75-5.63,2.74-7.2,3.34a3.76,3.76,0,0,0-.12,1C145.2,75,149,76,151.27,76a19.44,19.44,0,0,0,11.84-4.61,2.15,2.15,0,0,1,.94-.27c.16,0,.24.07.25.15s-.08.16-.15.33c-4,2.67-8.65,4.9-13.34,5.06-3.57.12-8.27-.36-8.38-3.69-.14-4.05,4.56-6,7.73-6.14,1.67-.06,2.24.4,2.26.95m-7.06,2.78,1.58-.37c1-.35,5.22-.73,4.45-2.21-.09-.32-.57-.54-1.36-.51a5.14,5.14,0,0,0-4.67,3.09"/><path class="cls-2" d="M171.41,65.59c0,.87-5.83,1.39-5.73,4.25.06,1.66,3.79,1.69,3.86,3.76a1.16,1.16,0,0,1-.14.56c4-.14,8.08-.67,11-3.39.07-.17.78-.35,1.18-.36.16,0,.31,0,.32.15a.33.33,0,0,1-.07.24c-3.55,3.06-8.31,3.46-12.74,3.92-1.47,1.25-5.58,1.86-6.85,1.9h-.08c-.95,0-1.67-.34-1.69-.74,0-1,2.89-1.53,5.9-1.63,0-.79-3.53-1.23-3.6-3.29-.1-2.94,4.82-5.41,8.07-5.6.4,0,.56.14.56.22m-9.51,10c0,.16,1,.05,1.51,0a4.52,4.52,0,0,0,2.76-.73l-.48,0a26.22,26.22,0,0,0-3.63.52c-.16.08-.16.16-.16.16"/><path class="cls-2" d="M180.9,75.83c-1.75.06-2.49-.63-2.52-1.58-.13-3.73,6.25-7.76,10.93-7.92.32,0,.56.06.57.22s-.23.33-.39.41c-2.84.58-8.45,3.63-8.34,7,0,1,.52,1.17,1.15,1.15,1.35,0,3.52-1.55,4.14-2,1.85-1.65,3.36-4,5.19-6.21.07-.32.93-.67,1.33-.68.24,0,.32.07.33.23.05,1.58-.1,1.83-.08,2.54.11,3.1,1,4.82,4.72,5.48a12.25,12.25,0,0,0,8.74-4.5c.08-.17.78-.35,1.18-.36.16,0,.32,0,.32.15a.27.27,0,0,1-.07.24,20.9,20.9,0,0,1-11.57,5.39h-.08c-4.21.14-6.15-1.07-6.24-3.68a9.05,9.05,0,0,1,.46-2.64c-2.67,3-5.19,6.29-9.22,6.82Z"/></svg>